<svg width="262" height="97" fill="none" xmlns="http://www.w3.org/2000/svg"><mask id="a" fill="#fff"><path fill-rule="evenodd" clip-rule="evenodd" d="M169.298 60.312l-.654-.13.087-.436-.218-.044.478-2.396-.218-.044-.043.218-.436-.087-.044.218-.435-.087-.044.218-.436-.087-.043.218-.436-.087-.043.218-.218-.043-.044.218-.217-.044-.087.436-.218-.044-.087.436-.218-.043-.174.871-.218-.043-.13.653-.218-.043-.087.436-.218-.044-.043.218-.218-.043-.043.218-.218-.044-.087.436-.218-.044-.043.218-.436-.087-.044.218-.217-.043-.044.218-.218-.044-.043.218-.436-.087-.043.218-.218-.043-.044.218-.435-.087-.044.218-.654-.13-.043.217-.654-.13-.043.218-.436-.087.044-.218-.436-.087.043-.218.218.044.044-.218.435.087.044-.218.653.13.044-.218.436.087.043-.218.436.087.043-.218.218.044.044-.218.218.043.043-.218.218.044.043-.218.218.043.044-.217.217.043.044-.218.218.044.043-.218.218.043.087-.436.218.044.087-.436.218.043.347-1.743-.218-.043.131-.654-.218-.043.13-.654-.218-.043.087-.436-.218-.043.044-.218-.218-.044.087-.435-2.179-.435.043-.218-.218-.043.087-.436-4.357-.869.043-.218-2.179-.434-1.607 8.061.218.044-.087.435.218.044-.043.218.217.043-.043.218.218.044-.044.218.218.043-.043.218.218.043-.044.218.436.087-.043.218.653.13-.043.218 6.754 1.347-.044.218 2.615.521.043-.218.654.13.044-.217.435.087.044-.218.218.043.043-.218.436.087.043-.218.218.044.044-.218.217.043.087-.436.218.044.044-.218.218.043.043-.217.218.043.087-.436.218.044.086-.436-.217-.044.087-.435-.218-.044.13-.653-.218-.044.13-.653.218.043.044-.218.218.044.043-.218.218.043.043-.218.218.044.044-.218zM45.929 24.613l-1.307-.26.087-.436-6.754-1.347.174-.871-17.43-3.476-.044.218-.218-.043-.087.435-4.14-.825-.173.872 29.849 5.951.043-.218zm23.836 4.3l-2.397-.478.13-.654-.217-.043.043-.218-18.084-3.606-.043.218-.218-.043-.217 1.089-.654-.13-.043.218 21.57 4.3.13-.653zm2.087-7.06l-4.358-.869.044-.218-11.765-2.346-.044.218-5.447-1.086-.521 2.615 18.52 3.692.347-1.743 3.05.609.174-.872zm29.239 5.603l-.872-.173.174-.872-.218-.043.044-.218-8.28-1.651-.043.218-.218-.043-.174.871-5.664-1.13.173-.871-.218-.044.044-.217-8.28-1.651-.043.218-.218-.044-.174.872-2.396-.478-.174.871 2.397.478-.13.654.217.043-.043.218 8.28 1.651.043-.218.218.044.13-.654 5.665 1.13-.13.653.217.043-.043.218 8.279 1.651.043-.218.218.044.131-.654.871.174.174-.872zM13.81 10.733l.218.044-.043.218 4.793.955.043-.218.218.044.348-1.743-.218-.044.087-.435-.218-.044.087-.436-.218-.043.043-.218-.218-.043.044-.218-.436-.087.043-.218-3.703-.739-.044.218-.218-.043-.043.218-.218-.044-.521 2.615.218.043-.044.218zm47.581 4.503l-.218-.043.044-.218-.218-.043-.043.218-.436-.087-.13.653.217.044-.043.218.436.087.043-.218.218.043.13-.654zm2.397.478l-.218-.043.044-.218-.436-.087-.044.218-.218-.043-.13.653.218.044-.043.218.435.086.044-.217.218.043.13-.654zm2.397.478l-.218-.043.043-.218-.436-.087-.043.218-.218-.044-.13.654.218.044-.044.217.436.087.043-.218.218.044.13-.654zm50.893 6.07l.654.13-.044.218.872.174-.044.218.872.174-.044.218 1.526.304-.044.218 2.833.564.086-.435-.217-.044.043-.218-.218-.043.13-.654-6.754-1.346-.043.217.436.087-.044.218zm9.892 1.52l-1.308-.261-.13.653-.218-.043-.043.218-.436-.087-.087.436.654.13-.044.218.218.043-.391 1.961 60.57 12.077.043-.218.436.087-.044.218.654.13-.043.218.435.087-.043.218.218.043-.044.218.218.044-.043.218.218.043-.044.218.218.043-.043.218.218.044-.044.218.218.043-.043.218.217.043-.043.218.218.044-.044.218.218.043-.043.218.218.043-.087.436.218.043-.044.218.218.044-.043.218.218.043-.044.218.218.043-.043.218 1.525.304-.044.218.218.044-.043.218.218.043-.087.436.218.043-.044.218.218.043-.087.436.218.044-.087.435-.653-.13-.044.218.218.043-.087.436.218.044-.043.218.217.043-.043.218.218.043-.044.218.218.044-.043.218.218.043-.044.218.218.043-.043.218.218.044-.044.217 1.09.218-.087.436 1.743.347-.044.218 1.525.304-.043.218 1.307.26-.043.218 1.089.217-.043.218 1.307.261-.044.218 1.308.26-.044.218 1.308.261-.044.218 1.307.26-.043.219 1.089.217-.043.218 1.089.217-.043.218 1.307.26-.043.218 1.089.217-.043.218 1.089.218-.043.217 1.089.218-.044.218 1.308.26-.044.218 1.525.304-.043.218 1.743.347.043-.217 1.09.217.043-.218.654.13.043-.218.436.087.043-.218.654.13.044-.217.435.087.044-.218.653.13.044-.218.653.13.044-.217 1.089.217.044-.218 4.357.869-.043.218 1.961.39-.044.219 1.961.39-.043.219 2.178.434-.043.218 1.743.347-.043.218 1.961.391-.044.218 1.961.391-.043.218 1.742.348-.043.217 1.961.391-.043.218 1.742.348-.043.218 1.743.347-.043.218 1.743.348-.044.218 1.743.347-.043.218 1.743.347-.044.218 1.743.348-.043.218 1.525.304-.043.218 1.525.304-.044.218 1.525.304-.043.218 1.307.26-.043.218 1.307.26-.043.219 1.089.217-.043.218.871.174-.043.217.218.044-.044.218.218.043.043-.218.654.13-.043.219.217.043-.043.218.218.043-.13.654.217.043-.217 1.09-.218-.044-.304 1.526-.218-.044-.26 1.307-.218-.043-.261 1.307-.218-.043-.304 1.525-.218-.044-.347 1.743-.218-.043-.304 1.525-.218-.043-.304 1.525-.218-.044-.348 1.743-.217-.043-.305 1.525-.217-.043-.348 1.743-.218-.044-.347 1.743-.218-.043-.348 1.743-.218-.044-.347 1.743-.218-.043-.348 1.743-.217-.044-.435 2.18-.218-.044-.13.653-.218-.043-.087.436-.218-.044-.043.218-1.09-.217.044-.218-1.307-.26.043-.218-.654-.13.044-.219-.654-.13.044-.218-.654-.13.044-.218-.436-.087.043-.218-.653-.13.043-.218-.654-.13.044-.218-.654-.13.044-.219-.654-.13.043-.218-.435-.087.043-.217-.653-.13.043-.219-.654-.13.044-.218-.654-.13.044-.218-.654-.13.043-.218-.653-.13.043-.218-.653-.13.043-.219-.436-.087.044-.217-.654-.13.044-.219-.654-.13.043-.218-.653-.13.043-.218-.653-.13.043-.218-.654-.13.044-.219-.654-.13.044-.218-.654-.13.043-.218-.653-.13.043-.218-.653-.13.043-.218-.654-.13.044-.218-.436-.087.044-.218-.654-.13.043-.218-.653-.13.043-.219-.653-.13.043-.218-.654-.13.044-.218-.654-.13.044-.218-.654-.13.043-.219-.653-.13.043-.218-.653-.13.043-.218-.654-.13.044-.218-.654-.13.044-.218-.654-.13.043-.218-.653-.13.043-.219-.435-.087.043-.217-.654-.13.044-.219-.654-.13.044-.218-.654-.13.043-.218-.653-.13.043-.218-.653-.13.043-.218-.654-.13.044-.219-.654-.13.044-.218-.654-.13.043-.218-.653-.13.043-.218-.653-.13.043-.218-.436-.087.044-.218-.654-.13.044-.218-.654-.13.043-.219-.653-.13.043-.218-.653-.13.043-.218-.654-.13.044-.218-.654-.13.044-.218-.654-.13.043-.219-.653-.13.043-.218-.653-.13.043-.218-.654-.13.044-.218-.654-.13.044-.218-.654-.13.044-.219-.654-.13.043-.218-.435-.087.043-.218-.654-.13.044-.218-.654-.13.044-.218-.654-.13.044-.218-.654-.13.043-.219-.653-.13.043-.218-.654-.13.044-.218-.654-.13.044-.218-.654-.13.044-.218-.654-.13.043-.218-.653-.13.043-.219-.653-.13.043-.218-.654-.13.044-.218-.654-.13.044-.218-.654-.13.043-.218-.435-.087.043-.218-.654-.13.044-.218-.654-.13.044-.219-.654-.13.043-.218-.653-.13.043-.218-.653-.13.043-.218-.653-.13.043-.218-.654-.13.044-.219-.654-.13.044-.218-.654-.13.043-.218-.653-.13.043-.218-.653-.13.043-.218-.654-.13.044-.219-.654-.13.044-.218-.654-.13.044-.218-.654-.13.043-.218-.653-.13.043-.218-.654-.13.044-.219-.654-.13.044-.218-.654-.13.044-.218-.654-.13.043-.218-1.089-.218.043-.217-1.743-.348-.304 1.525-.218-.043-.173.871.217.044-.304 1.525-.217-.044-.131.654-.218-.043-.087.435-.217-.043-.087.436-.218-.044-.087.436-.218-.043-.174.871-.218-.043-.217 1.09.218.043-.261 1.307.218.043-.173.872.217.043-.13.654.218.043-.174.872.218.043-.087.436.218.043-.13.654.218.043-.131.654.218.043-.13.654.218.044-.131.653.218.044-.13.653.218.044-.131.653.218.044-.13.653.218.044-.087.435.218.044-.13.654.217.043-.13.654.218.043-.087.436.218.043-.13.654.218.043-.131.654.218.044-.087.435.218.044-.13.653.218.044-.131.653.218.044-.087.436.218.043-.13.654.218.043-.131.654.218.043-.217 1.09.218.043-.261 1.307-.218-.043-.13.653-.218-.043-.087.436-.218-.044-.043.218-.218-.043-.087.436-.218-.044-.043.218-.218-.043-.043.217-.218-.043-.044.218-.218-.044-.043.218-.436-.087-.043.218-.218-.043-.044.218-.653-.13-.044.217-.653-.13-.044.218-.871-.174-.044.218-1.525-.304-.043.218-3.05-.609.043-.218-1.089-.217.043-.218-.436-.086.044-.218-.436-.087.043-.218-.217-.044.043-.217-.218-.044.044-.218-.218-.043.043-.218-.218-.043.087-.436-.218-.044.478-2.396-.218-.044.217-1.09-.217-.043.13-.653-.218-.044.13-.653-.218-.044.087-.436-.217-.043.13-.654-.218-.043.087-.436-.218-.043.087-.436-.218-.043.13-.654-.218-.043.087-.436-.218-.044.087-.435-.218-.044.131-.653-.218-.044.087-.436-.218-.043.13-.654-.218-.043.087-.436-.218-.043.087-.436-.218-.044.131-.653-.218-.044.087-.435-.218-.044.087-.436-.218-.043.13-.654-.218-.043.087-.436-.218-.043.087-.436-.218-.043.131-.654-.218-.044.087-.435-.218-.044.087-.435-.218-.044.13-.653-.218-.044.087-.436-.218-.043.087-.436-.218-.043.131-.654-.218-.043.087-.436-.218-.044.043-.218-.218-.043.087-.436-.218-.043.087-.436-.218-.043.044-.218-.218-.044.043-.218-.218-.043.087-.436-.218-.043.044-.218-.218-.043.043-.218-.218-.044.044-.218-.436-.087.044-.218-.218-.043.043-.218-.218-.043-.087.436-.217-.044-.044.218-.218-.044-.087.436-.218-.043-.043.218-.218-.044-.043.218-.218-.043-.044.218-.217-.044-.044.218-.218-.043-.043.217-.218-.043-.044.218-.435-.087-.044.218-.436-.087-.043.218-.436-.087-.043.218-9.805-1.955.044-.218-.872-.174.044-.218-.436-.087.043-.217-.435-.087.043-.218-.218-.044.044-.217-.436-.087.043-.218-.217-.044.043-.218-.218-.043.087-.436-.218-.043.044-.218-.218-.043.087-.436-.218-.044.043-.218-2.179-.434-.086.436-.218-.044-.218 1.09.218.043-.347 1.743.218.044-.044.218-.218-.044-.043.218-.654-.13.174-.872-.218-.043.13-.654-.217-.043.173-.872-.218-.043.174-.872-.218-.043.087-.436-.436-.087.044-.218-.218-.043.043-.218-.217-.044.999-5.01-.872-.174-.26 1.307-.218-.044-.044.218-1.743-.347-.043.218-.218-.044-.261 1.307-.218-.043-.217 1.09-.218-.044-.217 1.09-.218-.044-.173.871-.218-.043-.174.871-.218-.043-.174.871-.218-.043-.174.871-.217-.043-.131.654-.218-.044-.173.872-.218-.044-.13.654-.218-.043-.131.653-.218-.043-.13.653-.218-.043-.13.653-.218-.043-.13.654-.218-.044-.087.436-.218-.043-.13.653-.218-.043-.087.436-.218-.044-.13.654-.218-.044-.087.436-.218-.043-.13.653-.218-.043-.087.436-.218-.044-.087.436-.218-.044-.086.436-.218-.043-.131.653-.218-.043-.086.436-.218-.044-.087.436-.218-.044-.087.436-.218-.043-.087.436-.218-.044-.087.436-.217-.044-.087.436-.218-.043-.087.436-.218-.044-.043.218-.218-.043-.087.435-.218-.043-.087.435-.218-.043-.087.436-.217-.044-.044.218-.218-.043-.087.436-.218-.044-.086.436-.218-.043-.087.435-.218-.043-.044.218-.217-.044-.087.436-.218-.043-.044.217-.218-.043-.086.436-.218-.044-.044.218-.218-.043-.086.436-.218-.044-.044.218-.218-.044-.087.436-.217-.043-.044.218-.218-.044-.087.436-.217-.043-.044.217-.218-.043-.087.436-.218-.044-.043.218-.218-.043-.043.218-.218-.044-.087.436-.218-.044-.043.218-.218-.043-.044.218-.218-.044-.086.436-.218-.043-.044.218-.218-.044-.043.218-.218-.044-.087.436-.218-.043-.043.218-.218-.044-.043.218-.218-.043-.044.218-.218-.044-.043.218-.218-.043-.087.435-.218-.043-.043.218-.218-.044-.044.218-.217-.043-.044.218-.218-.044-.043.218-.218-.043-.044.217-.217-.043-.087.436-.218-.044-.044.218-.217-.043-.044.218-.218-.044-.043.218-.218-.043-.044.218-.217-.044-.044.218-.218-.044-.043.218-.218-.043-.044.218-.217-.044-.044.218-.218-.043-.043.218-.218-.044-.043.218-.218-.043-.044.218-.218-.044-.043.218-.218-.043-.043.217-.218-.043-.044.218-.218-.044-.043.218-.218-.043-.043.218-.218-.044-.044.218-.218-.043-.043.218-.218-.044-.043.218-.218-.043-.044.218-.218-.044-.043.218-.218-.044-.043.218-.218-.043-.044.218-.217-.044-.044.218-.218-.043-.043.218-.436-.087-.043.218-.218-.044-.044.218-.218-.043-.043.218-.218-.044-.043.218-.218-.044-.044.218-.218-.043-.043.218-.436-.087-.043.218-.218-.044-.044.218-.217-.043-.044.218-.218-.044-.043.218-.436-.087-.043.218-.218-.043-.044.218-.218-.044-.043.218-.218-.043-.043.217-.436-.087-.044.218-.217-.043-.044.218-.218-.044-.043.218-.436-.087-.043.218-.218-.043-.044.218-.218-.044-.043.218-.436-.087-.043.218-.218-.043-.044.218-.435-.087-.044.218-.218-.044-.043.218-.218-.043-.043.217-.436-.086-.043.217-.218-.043-.044.218-.436-.087-.043.218-.218-.044-.043.218-.436-.087-.044.218-.217-.043-.044.218-.436-.087-.043.218-.436-.087-.043.218-.218-.044-.044.218-.435-.087-.044.218-.218-.043-.043.218-.218-.044.043-.218-.217-.043.087-.436-.218-.043.043-.218-.218-.044.087-.435-.218-.044.044-.218-.218-.043.087-.436-.218-.043.043-.218-.218-.044.087-.436-.218-.043.087-.436-.218-.043.044-.218-.218-.043.087-.436-.218-.044.043-.218-.218-.043.087-.436-.218-.043.044-.218-.218-.044.087-.435-.218-.044.087-.436-.218-.043.044-.218-.218-.043.087-.436-.218-.043.043-.218-.218-.044.087-.435-.218-.044.087-.436-.218-.043.044-.218-.218-.043.087-.436-.218-.044.043-.218-.218-.043.087-.436-.218-.043.044-.218-.218-.043.087-.436-.218-.044.087-.435-.218-.044.043-.218-.218-.043.087-.436-.218-.043.044-.218-.218-.044.087-.435-.218-.044.044-.218-.218-.043.087-.436-.218-.043.087-.436-.218-.044.043-.218-.218-.043.087-.436-.218-.043.044-.218-.218-.043.087-.436-.218-.044.043-.218-.218-.043.087-.436-.218-.043.087-.436-.218-.043.087-.436.436.087.044-.218.217.043.044-.218.436.087.043-.217.218.043.043-.218.218.044.044-.218.435.087.044-.218.218.043.043-.218.218.044.043-.218.436.087.044-.218.218.043.043-.218.218.044.043-.218.436.087.044-.218.217.043.044-.218.218.044.043-.218.218.043.043-.217.436.087.044-.218.218.043.043-.218.218.044.043-.218.218.043.044-.218.435.087.044-.218.218.044.043-.218.218.043.043-.218.218.044.044-.218.218.043.043-.217.218.043.043-.218.218.044.044-.218.435.087.044-.218.218.043.043-.218.218.044.043-.218.218.043.044-.218.218.044.043-.218.218.043.044-.218.217.044.044-.218.218.044.043-.218.218.043.043-.218.218.044.044-.218.218.043.043-.218.218.044.043-.218.218.043.044-.218.218.044.043-.218.218.043.043-.217.218.043.044-.218.218.044.043-.218.218.043.043-.218.218.044.087-.436.218.043.043-.217.218.043.044-.218.218.044.043-.218.218.043.043-.218.218.044.044-.218.218.043.086-.435.218.043.044-.218.218.044.043-.218.218.043.043-.218.218.044.087-.436.218.043.043-.218.218.044.044-.218.218.043.043-.217.218.043.087-.436.218.044.043-.218.218.043.044-.218.217.044.087-.436.218.044.044-.218.217.043.087-.436.218.044.044-.218.218.043.086-.435.218.043.044-.218.218.044.087-.436.217.043.044-.218.218.044.087-.436.217.044.087-.436.218.043.044-.218.218.044.086-.436.218.044.087-.436.218.043.043-.218.218.044.087-.436.218.043.087-.435.218.043.087-.436.218.044.087-.436.217.044.087-.436.218.043.087-.436.218.044.087-.436.218.044.087-.436.217.043.087-.436.218.044.131-.654.217.044.087-.436.218.044.087-.436.218.043.13-.654.218.044.13-.654.218.044.087-.436.218.043.13-.653.218.043.131-.653.217.043.131-.654.218.044.173-.872.218.044.131-.654.218.044.173-.872.218.044.174-.872.218.044.174-.872.218.044.173-.872.218.043.217-1.089.218.044.261-1.308.218.044.217-1.09-4.575-.912.043-.218-5.447-1.086.044-.218-4.14-.825-.087.435-.218-.043-.043.218-2.615-.521-.13.653-.218-.043-.043.218-.218-.044-.044.218-2.832-.565.043-.218-1.089-.217.043-.218-.871-.173.043-.218-.871-.174.043-.218-.653-.13.043-.218-.872-.174.044-.218-.654-.13.044-.218-.872-.174.044-.218-.872-.173.044-.218-2.179-.435.043-.218-7.843-1.563.043-.218-6.972-1.39.044-.218-6.319-1.26.044-.218-6.755-1.347.044-.218-1.743-.347.043-.218-.218-.043.044-.218-1.525-.304.043-.218-.871-.174.26-1.307-21.57-4.301-.043.218-.218-.044-.087.436-1.96-.39.13-.654-31.157-6.213-.086.436-2.18-.434.261-1.308-.217-.043-.044.218-1.09-.218.261-1.307-2.178-.434.13-.654-.436-.087-.13.654L.74 14.924l.261-1.308.436.087.043-.218.872.174.043-.218.436.087.043-.218.654.13.044-.217.217.043.044-.218.436.087.043-.218.218.044.043-.218.436.087.043-.218.218.043.044-.218.218.044.043-.218.218.043.043-.217.218.043.087-.436.218.044.087-.436.218.043.043-.217 3.05.608-.086.436.435.086.13-.653.219.043.043-.218.872.174.13-.654.871.174L14.458.668l.217.044.087-.436.436.087.044-.218 3.921.782-.043.218.218.043-.044.218.218.043-.087.436.218.044-.565 2.832.218.043-.13.654.218.044-.087.435.218.044-.087.435.218.044-.087.436.218.043-.087.436.218.043-.087.436.218.043-.087.436.218.044-.087.435.218.044-.087.436.218.043-.087.436.218.043-.087.436.218.043-.087.436.218.044-.087.435.218.044-.13.653.217.044-.087.436.218.043-.087.436.218.043-.087.436.218.043-.217 1.09 17.648 3.519.13-.654 1.526.304.043-.218.872.174.043-.218.872.174.043-.218.436.087.043-.218.436.087.043-.218.436.087.044-.218.217.043.044-.217.436.087.043-.218.218.043.043-.218.218.044.044-.218.218.043.043-.218.218.044.043-.218.218.043.044-.218.218.044.043-.218.218.043.043-.217.218.043.044-.218.218.044.086-.436.218.043.044-.218.218.044.086-.436.218.044.044-.218.218.043.087-.436.218.044.086-.436.218.044.044-.218.218.043.086-.436.218.044.087-.436.218.043.087-.435 18.955 3.78.087-.437 4.358.87.13-.654.218.043.043-.218 1.09.217.043-.217.218.043.043-.218.436.087.044-.218 5.882 1.173.044-.218 6.972 1.39.043-.218 6.972 1.39.044-.217 6.972 1.39.043-.218 1.307.26-.043.219.436.086-.044.218 1.525.304-.043.218.218.044-.174.871 1.525.304.391-1.96.218.043.087-.436.218.044.043-.218 4.358.869.043-.218.218.043.044-.218.217.044.044-.218.871.174-.043.218.218.043-.044.218 12.419 2.476.044-.218.218.043.043-.217.218.043.043-.218.436.087-.26 1.307z"/></mask><path fill-rule="evenodd" clip-rule="evenodd" d="M169.298 60.312l-.654-.13.087-.436-.218-.044.478-2.396-.218-.044-.043.218-.436-.087-.044.218-.435-.087-.044.218-.436-.087-.043.218-.436-.087-.043.218-.218-.043-.044.218-.217-.044-.087.436-.218-.044-.087.436-.218-.043-.174.871-.218-.043-.13.653-.218-.043-.087.436-.218-.044-.043.218-.218-.043-.043.218-.218-.044-.087.436-.218-.044-.043.218-.436-.087-.044.218-.217-.043-.044.218-.218-.044-.043.218-.436-.087-.043.218-.218-.043-.044.218-.435-.087-.044.218-.654-.13-.043.217-.654-.13-.043.218-.436-.087.044-.218-.436-.087.043-.218.218.044.044-.218.435.087.044-.218.653.13.044-.218.436.087.043-.218.436.087.043-.218.218.044.044-.218.218.043.043-.218.218.044.043-.218.218.043.044-.217.217.043.044-.218.218.044.043-.218.218.043.087-.436.218.044.087-.436.218.043.347-1.743-.218-.043.131-.654-.218-.043.13-.654-.218-.043.087-.436-.218-.043.044-.218-.218-.044.087-.435-2.179-.435.043-.218-.218-.043.087-.436-4.357-.869.043-.218-2.179-.434-1.607 8.061.218.044-.087.435.218.044-.043.218.217.043-.043.218.218.044-.044.218.218.043-.043.218.218.043-.044.218.436.087-.043.218.653.13-.043.218 6.754 1.347-.044.218 2.615.521.043-.218.654.13.044-.217.435.087.044-.218.218.043.043-.218.436.087.043-.218.218.044.044-.218.217.043.087-.436.218.044.044-.218.218.043.043-.217.218.043.087-.436.218.044.086-.436-.217-.044.087-.435-.218-.044.13-.653-.218-.044.13-.653.218.043.044-.218.218.044.043-.218.218.043.043-.218.218.044.044-.218zM45.929 24.613l-1.307-.26.087-.436-6.754-1.347.174-.871-17.43-3.476-.044.218-.218-.043-.087.435-4.14-.825-.173.872 29.849 5.951.043-.218zm23.836 4.3l-2.397-.478.13-.654-.217-.043.043-.218-18.084-3.606-.043.218-.218-.043-.217 1.089-.654-.13-.043.218 21.57 4.3.13-.653zm2.087-7.06l-4.358-.869.044-.218-11.765-2.346-.044.218-5.447-1.086-.521 2.615 18.52 3.692.347-1.743 3.05.609.174-.872zm29.239 5.603l-.872-.173.174-.872-.218-.043.044-.218-8.28-1.651-.043.218-.218-.043-.174.871-5.664-1.13.173-.871-.218-.044.044-.217-8.28-1.651-.043.218-.218-.044-.174.872-2.396-.478-.174.871 2.397.478-.13.654.217.043-.043.218 8.28 1.651.043-.218.218.044.13-.654 5.665 1.13-.13.653.217.043-.043.218 8.279 1.651.043-.218.218.044.131-.654.871.174.174-.872zM13.81 10.733l.218.044-.043.218 4.793.955.043-.218.218.044.348-1.743-.218-.044.087-.435-.218-.044.087-.436-.218-.043.043-.218-.218-.043.044-.218-.436-.087.043-.218-3.703-.739-.044.218-.218-.043-.043.218-.218-.044-.521 2.615.218.043-.044.218zm47.581 4.503l-.218-.043.044-.218-.218-.043-.043.218-.436-.087-.13.653.217.044-.043.218.436.087.043-.218.218.043.13-.654zm2.397.478l-.218-.043.044-.218-.436-.087-.044.218-.218-.043-.13.653.218.044-.043.218.435.086.044-.217.218.043.13-.654zm2.397.478l-.218-.043.043-.218-.436-.087-.043.218-.218-.044-.13.654.218.044-.044.217.436.087.043-.218.218.044.13-.654zm50.893 6.07l.654.13-.044.218.872.174-.044.218.872.174-.044.218 1.526.304-.044.218 2.833.564.086-.435-.217-.044.043-.218-.218-.043.13-.654-6.754-1.346-.043.217.436.087-.044.218zm9.892 1.52l-1.308-.261-.13.653-.218-.043-.043.218-.436-.087-.087.436.654.13-.044.218.218.043-.391 1.961 60.57 12.077.043-.218.436.087-.044.218.654.13-.043.218.435.087-.043.218.218.043-.044.218.218.044-.043.218.218.043-.044.218.218.043-.043.218.218.044-.044.218.218.043-.043.218.217.043-.043.218.218.044-.044.218.218.043-.043.218.218.043-.087.436.218.043-.044.218.218.044-.043.218.218.043-.044.218.218.043-.043.218 1.525.304-.044.218.218.044-.043.218.218.043-.087.436.218.043-.044.218.218.043-.087.436.218.044-.087.435-.653-.13-.044.218.218.043-.087.436.218.044-.043.218.217.043-.043.218.218.043-.044.218.218.044-.043.218.218.043-.044.218.218.043-.043.218.218.044-.044.217 1.09.218-.087.436 1.743.347-.044.218 1.525.304-.043.218 1.307.26-.043.218 1.089.217-.043.218 1.307.261-.044.218 1.308.26-.044.218 1.308.261-.044.218 1.307.26-.043.219 1.089.217-.043.218 1.089.217-.043.218 1.307.26-.043.218 1.089.217-.043.218 1.089.218-.043.217 1.089.218-.044.218 1.308.26-.044.218 1.525.304-.043.218 1.743.347.043-.217 1.09.217.043-.218.654.13.043-.218.436.087.043-.218.654.13.044-.217.435.087.044-.218.653.13.044-.218.653.13.044-.217 1.089.217.044-.218 4.357.869-.043.218 1.961.39-.044.219 1.961.39-.043.219 2.178.434-.043.218 1.743.347-.043.218 1.961.391-.044.218 1.961.391-.043.218 1.742.348-.043.217 1.961.391-.043.218 1.742.348-.043.218 1.743.347-.043.218 1.743.348-.044.218 1.743.347-.043.218 1.743.347-.044.218 1.743.348-.043.218 1.525.304-.043.218 1.525.304-.044.218 1.525.304-.043.218 1.307.26-.043.218 1.307.26-.043.219 1.089.217-.043.218.871.174-.043.217.218.044-.044.218.218.043.043-.218.654.13-.043.219.217.043-.043.218.218.043-.13.654.217.043-.217 1.09-.218-.044-.304 1.526-.218-.044-.26 1.307-.218-.043-.261 1.307-.218-.043-.304 1.525-.218-.044-.347 1.743-.218-.043-.304 1.525-.218-.043-.304 1.525-.218-.044-.348 1.743-.217-.043-.305 1.525-.217-.043-.348 1.743-.218-.044-.347 1.743-.218-.043-.348 1.743-.218-.044-.347 1.743-.218-.043-.348 1.743-.217-.044-.435 2.18-.218-.044-.13.653-.218-.043-.087.436-.218-.044-.043.218-1.09-.217.044-.218-1.307-.26.043-.218-.654-.13.044-.219-.654-.13.044-.218-.654-.13.044-.218-.436-.087.043-.218-.653-.13.043-.218-.654-.13.044-.218-.654-.13.044-.219-.654-.13.043-.218-.435-.087.043-.217-.653-.13.043-.219-.654-.13.044-.218-.654-.13.044-.218-.654-.13.043-.218-.653-.13.043-.218-.653-.13.043-.219-.436-.087.044-.217-.654-.13.044-.219-.654-.13.043-.218-.653-.13.043-.218-.653-.13.043-.218-.654-.13.044-.219-.654-.13.044-.218-.654-.13.043-.218-.653-.13.043-.218-.653-.13.043-.218-.654-.13.044-.218-.436-.087.044-.218-.654-.13.043-.218-.653-.13.043-.219-.653-.13.043-.218-.654-.13.044-.218-.654-.13.044-.218-.654-.13.043-.219-.653-.13.043-.218-.653-.13.043-.218-.654-.13.044-.218-.654-.13.044-.218-.654-.13.043-.218-.653-.13.043-.219-.435-.087.043-.217-.654-.13.044-.219-.654-.13.044-.218-.654-.13.043-.218-.653-.13.043-.218-.653-.13.043-.218-.654-.13.044-.219-.654-.13.044-.218-.654-.13.043-.218-.653-.13.043-.218-.653-.13.043-.218-.436-.087.044-.218-.654-.13.044-.218-.654-.13.043-.219-.653-.13.043-.218-.653-.13.043-.218-.654-.13.044-.218-.654-.13.044-.218-.654-.13.043-.219-.653-.13.043-.218-.653-.13.043-.218-.654-.13.044-.218-.654-.13.044-.218-.654-.13.044-.219-.654-.13.043-.218-.435-.087.043-.218-.654-.13.044-.218-.654-.13.044-.218-.654-.13.044-.218-.654-.13.043-.219-.653-.13.043-.218-.654-.13.044-.218-.654-.13.044-.218-.654-.13.044-.218-.654-.13.043-.218-.653-.13.043-.219-.653-.13.043-.218-.654-.13.044-.218-.654-.13.044-.218-.654-.13.043-.218-.435-.087.043-.218-.654-.13.044-.218-.654-.13.044-.219-.654-.13.043-.218-.653-.13.043-.218-.653-.13.043-.218-.653-.13.043-.218-.654-.13.044-.219-.654-.13.044-.218-.654-.13.043-.218-.653-.13.043-.218-.653-.13.043-.218-.654-.13.044-.219-.654-.13.044-.218-.654-.13.044-.218-.654-.13.043-.218-.653-.13.043-.218-.654-.13.044-.219-.654-.13.044-.218-.654-.13.044-.218-.654-.13.043-.218-1.089-.218.043-.217-1.743-.348-.304 1.525-.218-.043-.173.871.217.044-.304 1.525-.217-.044-.131.654-.218-.043-.087.435-.217-.043-.087.436-.218-.044-.087.436-.218-.043-.174.871-.218-.043-.217 1.09.218.043-.261 1.307.218.043-.173.872.217.043-.13.654.218.043-.174.872.218.043-.087.436.218.043-.13.654.218.043-.131.654.218.043-.13.654.218.044-.131.653.218.044-.13.653.218.044-.131.653.218.044-.13.653.218.044-.087.435.218.044-.13.654.217.043-.13.654.218.043-.087.436.218.043-.13.654.218.043-.131.654.218.044-.087.435.218.044-.13.653.218.044-.131.653.218.044-.087.436.218.043-.13.654.218.043-.131.654.218.043-.217 1.09.218.043-.261 1.307-.218-.043-.13.653-.218-.043-.087.436-.218-.044-.043.218-.218-.043-.087.436-.218-.044-.043.218-.218-.043-.043.217-.218-.043-.044.218-.218-.044-.043.218-.436-.087-.043.218-.218-.043-.044.218-.653-.13-.044.217-.653-.13-.044.218-.871-.174-.044.218-1.525-.304-.043.218-3.05-.609.043-.218-1.089-.217.043-.218-.436-.086.044-.218-.436-.087.043-.218-.217-.044.043-.217-.218-.044.044-.218-.218-.043.043-.218-.218-.043.087-.436-.218-.044.478-2.396-.218-.044.217-1.09-.217-.043.13-.653-.218-.044.13-.653-.218-.044.087-.436-.217-.043.13-.654-.218-.043.087-.436-.218-.043.087-.436-.218-.043.13-.654-.218-.043.087-.436-.218-.044.087-.435-.218-.044.131-.653-.218-.044.087-.436-.218-.043.13-.654-.218-.043.087-.436-.218-.043.087-.436-.218-.044.131-.653-.218-.044.087-.435-.218-.044.087-.436-.218-.043.13-.654-.218-.043.087-.436-.218-.043.087-.436-.218-.043.131-.654-.218-.044.087-.435-.218-.044.087-.435-.218-.044.13-.653-.218-.044.087-.436-.218-.043.087-.436-.218-.043.131-.654-.218-.043.087-.436-.218-.044.043-.218-.218-.043.087-.436-.218-.043.087-.436-.218-.043.044-.218-.218-.044.043-.218-.218-.043.087-.436-.218-.043.044-.218-.218-.043.043-.218-.218-.044.044-.218-.436-.087.044-.218-.218-.043.043-.218-.218-.043-.087.436-.217-.044-.044.218-.218-.044-.087.436-.218-.043-.043.218-.218-.044-.043.218-.218-.043-.044.218-.217-.044-.044.218-.218-.043-.043.217-.218-.043-.044.218-.435-.087-.044.218-.436-.087-.043.218-.436-.087-.043.218-9.805-1.955.044-.218-.872-.174.044-.218-.436-.087.043-.217-.435-.087.043-.218-.218-.044.044-.217-.436-.087.043-.218-.217-.044.043-.218-.218-.043.087-.436-.218-.043.044-.218-.218-.043.087-.436-.218-.044.043-.218-2.179-.434-.086.436-.218-.044-.218 1.09.218.043-.347 1.743.218.044-.044.218-.218-.044-.043.218-.654-.13.174-.872-.218-.043.13-.654-.217-.043.173-.872-.218-.043.174-.872-.218-.043.087-.436-.436-.087.044-.218-.218-.043.043-.218-.217-.044.999-5.01-.872-.174-.26 1.307-.218-.044-.044.218-1.743-.347-.043.218-.218-.044-.261 1.307-.218-.043-.217 1.09-.218-.044-.217 1.09-.218-.044-.173.871-.218-.043-.174.871-.218-.043-.174.871-.218-.043-.174.871-.217-.043-.131.654-.218-.044-.173.872-.218-.044-.13.654-.218-.043-.131.653-.218-.043-.13.653-.218-.043-.13.653-.218-.043-.13.654-.218-.044-.087.436-.218-.043-.13.653-.218-.043-.087.436-.218-.044-.13.654-.218-.044-.087.436-.218-.043-.13.653-.218-.043-.087.436-.218-.044-.087.436-.218-.044-.086.436-.218-.043-.131.653-.218-.043-.086.436-.218-.044-.087.436-.218-.044-.087.436-.218-.043-.087.436-.218-.044-.087.436-.217-.044-.087.436-.218-.043-.087.436-.218-.044-.043.218-.218-.043-.087.435-.218-.043-.087.435-.218-.043-.087.436-.217-.044-.044.218-.218-.043-.087.436-.218-.044-.086.436-.218-.043-.087.435-.218-.043-.044.218-.217-.044-.087.436-.218-.043-.044.217-.218-.043-.086.436-.218-.044-.044.218-.218-.043-.086.436-.218-.044-.044.218-.218-.044-.087.436-.217-.043-.044.218-.218-.044-.087.436-.217-.043-.044.217-.218-.043-.087.436-.218-.044-.043.218-.218-.043-.043.218-.218-.044-.087.436-.218-.044-.043.218-.218-.043-.044.218-.218-.044-.086.436-.218-.043-.044.218-.218-.044-.043.218-.218-.044-.087.436-.218-.043-.043.218-.218-.044-.043.218-.218-.043-.044.218-.218-.044-.043.218-.218-.043-.087.435-.218-.043-.043.218-.218-.044-.044.218-.217-.043-.044.218-.218-.044-.043.218-.218-.043-.044.217-.217-.043-.087.436-.218-.044-.044.218-.217-.043-.044.218-.218-.044-.043.218-.218-.043-.044.218-.217-.044-.044.218-.218-.044-.043.218-.218-.043-.044.218-.217-.044-.044.218-.218-.043-.043.218-.218-.044-.043.218-.218-.043-.044.218-.218-.044-.043.218-.218-.043-.043.217-.218-.043-.044.218-.218-.044-.043.218-.218-.043-.043.218-.218-.044-.044.218-.218-.043-.043.218-.218-.044-.043.218-.218-.043-.044.218-.218-.044-.043.218-.218-.044-.043.218-.218-.043-.044.218-.217-.044-.044.218-.218-.043-.043.218-.436-.087-.043.218-.218-.044-.044.218-.218-.043-.043.218-.218-.044-.043.218-.218-.044-.044.218-.218-.043-.043.218-.436-.087-.043.218-.218-.044-.044.218-.217-.043-.044.218-.218-.044-.043.218-.436-.087-.043.218-.218-.043-.044.218-.218-.044-.043.218-.218-.043-.043.217-.436-.087-.044.218-.217-.043-.044.218-.218-.044-.043.218-.436-.087-.043.218-.218-.043-.044.218-.218-.044-.043.218-.436-.087-.043.218-.218-.043-.044.218-.435-.087-.044.218-.218-.044-.043.218-.218-.043-.043.217-.436-.086-.043.217-.218-.043-.044.218-.436-.087-.043.218-.218-.044-.043.218-.436-.087-.044.218-.217-.043-.044.218-.436-.087-.043.218-.436-.087-.043.218-.218-.044-.044.218-.435-.087-.044.218-.218-.043-.043.218-.218-.044.043-.218-.217-.043.087-.436-.218-.043.043-.218-.218-.044.087-.435-.218-.044.044-.218-.218-.043.087-.436-.218-.043.043-.218-.218-.044.087-.436-.218-.043.087-.436-.218-.043.044-.218-.218-.043.087-.436-.218-.044.043-.218-.218-.043.087-.436-.218-.043.044-.218-.218-.044.087-.435-.218-.044.087-.436-.218-.043.044-.218-.218-.043.087-.436-.218-.043.043-.218-.218-.044.087-.435-.218-.044.087-.436-.218-.043.044-.218-.218-.043.087-.436-.218-.044.043-.218-.218-.043.087-.436-.218-.043.044-.218-.218-.043.087-.436-.218-.044.087-.435-.218-.044.043-.218-.218-.043.087-.436-.218-.043.044-.218-.218-.044.087-.435-.218-.044.044-.218-.218-.043.087-.436-.218-.043.087-.436-.218-.044.043-.218-.218-.043.087-.436-.218-.043.044-.218-.218-.043.087-.436-.218-.044.043-.218-.218-.043.087-.436-.218-.043.087-.436-.218-.043.087-.436.436.087.044-.218.217.043.044-.218.436.087.043-.217.218.043.043-.218.218.044.044-.218.435.087.044-.218.218.043.043-.218.218.044.043-.218.436.087.044-.218.218.043.043-.218.218.044.043-.218.436.087.044-.218.217.043.044-.218.218.044.043-.218.218.043.043-.217.436.087.044-.218.218.043.043-.218.218.044.043-.218.218.043.044-.218.435.087.044-.218.218.044.043-.218.218.043.043-.218.218.044.044-.218.218.043.043-.217.218.043.043-.218.218.044.044-.218.435.087.044-.218.218.043.043-.218.218.044.043-.218.218.043.044-.218.218.044.043-.218.218.043.044-.218.217.044.044-.218.218.044.043-.218.218.043.043-.218.218.044.044-.218.218.043.043-.218.218.044.043-.218.218.043.044-.218.218.044.043-.218.218.043.043-.217.218.043.044-.218.218.044.043-.218.218.043.043-.218.218.044.087-.436.218.043.043-.217.218.043.044-.218.218.044.043-.218.218.043.043-.218.218.044.044-.218.218.043.086-.435.218.043.044-.218.218.044.043-.218.218.043.043-.218.218.044.087-.436.218.043.043-.218.218.044.044-.218.218.043.043-.217.218.043.087-.436.218.044.043-.218.218.043.044-.218.217.044.087-.436.218.044.044-.218.217.043.087-.436.218.044.044-.218.218.043.086-.435.218.043.044-.218.218.044.087-.436.217.043.044-.218.218.044.087-.436.217.044.087-.436.218.043.044-.218.218.044.086-.436.218.044.087-.436.218.043.043-.218.218.044.087-.436.218.043.087-.435.218.043.087-.436.218.044.087-.436.217.044.087-.436.218.043.087-.436.218.044.087-.436.218.044.087-.436.217.043.087-.436.218.044.131-.654.217.044.087-.436.218.044.087-.436.218.043.13-.654.218.044.13-.654.218.044.087-.436.218.043.13-.653.218.043.131-.653.217.043.131-.654.218.044.173-.872.218.044.131-.654.218.044.173-.872.218.044.174-.872.218.044.174-.872.218.044.173-.872.218.043.217-1.089.218.044.261-1.308.218.044.217-1.09-4.575-.912.043-.218-5.447-1.086.044-.218-4.14-.825-.087.435-.218-.043-.043.218-2.615-.521-.13.653-.218-.043-.043.218-.218-.044-.044.218-2.832-.565.043-.218-1.089-.217.043-.218-.871-.173.043-.218-.871-.174.043-.218-.653-.13.043-.218-.872-.174.044-.218-.654-.13.044-.218-.872-.174.044-.218-.872-.173.044-.218-2.179-.435.043-.218-7.843-1.563.043-.218-6.972-1.39.044-.218-6.319-1.26.044-.218-6.755-1.347.044-.218-1.743-.347.043-.218-.218-.043.044-.218-1.525-.304.043-.218-.871-.174.26-1.307-21.57-4.301-.043.218-.218-.044-.087.436-1.96-.39.13-.654-31.157-6.213-.086.436-2.18-.434.261-1.308-.217-.043-.044.218-1.09-.218.261-1.307-2.178-.434.13-.654-.436-.087-.13.654L.74 14.924l.261-1.308.436.087.043-.218.872.174.043-.218.436.087.043-.218.654.13.044-.217.217.043.044-.218.436.087.043-.218.218.044.043-.218.436.087.043-.218.218.043.044-.218.218.044.043-.218.218.043.043-.217.218.043.087-.436.218.044.087-.436.218.043.043-.217 3.05.608-.086.436.435.086.13-.653.219.043.043-.218.872.174.13-.654.871.174L14.458.668l.217.044.087-.436.436.087.044-.218 3.921.782-.043.218.218.043-.044.218.218.043-.087.436.218.044-.565 2.832.218.043-.13.654.218.044-.087.435.218.044-.087.435.218.044-.087.436.218.043-.087.436.218.043-.087.436.218.043-.087.436.218.044-.087.435.218.044-.087.436.218.043-.087.436.218.043-.087.436.218.043-.087.436.218.044-.087.435.218.044-.13.653.217.044-.087.436.218.043-.087.436.218.043-.087.436.218.043-.217 1.09 17.648 3.519.13-.654 1.526.304.043-.218.872.174.043-.218.872.174.043-.218.436.087.043-.218.436.087.043-.218.436.087.044-.218.217.043.044-.217.436.087.043-.218.218.043.043-.218.218.044.044-.218.218.043.043-.218.218.044.043-.218.218.043.044-.218.218.044.043-.218.218.043.043-.217.218.043.044-.218.218.044.086-.436.218.043.044-.218.218.044.086-.436.218.044.044-.218.218.043.087-.436.218.044.086-.436.218.044.044-.218.218.043.086-.436.218.044.087-.436.218.043.087-.435 18.955 3.78.087-.437 4.358.87.13-.654.218.043.043-.218 1.09.217.043-.217.218.043.043-.218.436.087.044-.218 5.882 1.173.044-.218 6.972 1.39.043-.218 6.972 1.39.044-.217 6.972 1.39.043-.218 1.307.26-.043.219.436.086-.044.218 1.525.304-.043.218.218.044-.174.871 1.525.304.391-1.96.218.043.087-.436.218.044.043-.218 4.358.869.043-.218.218.043.044-.218.217.044.044-.218.871.174-.043.218.218.043-.044.218 12.419 2.476.044-.218.218.043.043-.217.218.043.043-.218.436.087-.26 1.307z" fill="#181C32" stroke="#fff" stroke-opacity=".1" stroke-width="2" mask="url(#a)"/></svg>