<svg width="262" height="97" viewBox="0 0 262 97" fill="none" xmlns="http://www.w3.org/2000/svg">
<mask id="path-1-inside-1" fill="white">
<path fill-rule="evenodd" clip-rule="evenodd" d="M169.298 60.3119L168.644 60.1815L168.731 59.7458L168.513 59.7023L168.991 57.3057L168.773 57.2623L168.73 57.4801L168.294 57.3933L168.25 57.6111L167.815 57.5242L167.771 57.7421L167.335 57.6552L167.292 57.8731L166.856 57.7862L166.813 58.0041L166.595 57.9607L166.551 58.1785L166.334 58.1351L166.247 58.5708L166.029 58.5274L165.942 58.9632L165.724 58.9197L165.55 59.7912L165.332 59.7478L165.202 60.4014L164.984 60.358L164.897 60.7937L164.679 60.7503L164.636 60.9682L164.418 60.9247L164.375 61.1426L164.157 61.0991L164.07 61.5349L163.852 61.4914L163.809 61.7094L163.373 61.6225L163.329 61.8404L163.112 61.7969L163.068 62.0147L162.85 61.9713L162.807 62.1892L162.371 62.1023L162.328 62.3202L162.11 62.2768L162.066 62.4946L161.631 62.4078L161.587 62.6256L160.933 62.4953L160.89 62.7131L160.236 62.5828L160.193 62.8007L159.757 62.7138L159.801 62.496L159.365 62.4091L159.408 62.1912L159.626 62.2346L159.67 62.0168L160.105 62.1037L160.149 61.8858L160.802 62.0161L160.846 61.7982L161.282 61.8851L161.325 61.6672L161.761 61.7541L161.804 61.5362L162.022 61.5797L162.066 61.3618L162.284 61.4053L162.327 61.1874L162.545 61.2308L162.588 61.0129L162.806 61.0564L162.85 60.8385L163.067 60.8819L163.111 60.6641L163.329 60.7075L163.372 60.4896L163.59 60.5331L163.677 60.0973L163.895 60.1407L163.982 59.705L164.2 59.7484L164.547 58.0054L164.329 57.962L164.46 57.3083L164.242 57.2649L164.372 56.6113L164.154 56.5679L164.241 56.1321L164.023 56.0887L164.067 55.8708L163.849 55.8273L163.936 55.3916L161.757 54.9572L161.8 54.7393L161.582 54.6959L161.669 54.2601L157.312 53.3913L157.355 53.1734L155.176 52.739L153.569 60.8004L153.787 60.8438L153.7 61.2795L153.918 61.323L153.875 61.5409L154.092 61.5843L154.049 61.8022L154.267 61.8457L154.223 62.0635L154.441 62.107L154.398 62.3248L154.616 62.3683L154.572 62.5861L155.008 62.6731L154.965 62.8909L155.618 63.0213L155.575 63.2391L162.329 64.5858L162.285 64.8037L164.9 65.325L164.943 65.1072L165.597 65.2375L165.641 65.0196L166.076 65.1065L166.12 64.8886L166.338 64.9321L166.381 64.7142L166.817 64.8011L166.86 64.5832L167.078 64.6267L167.122 64.4088L167.339 64.4522L167.426 64.0164L167.644 64.0599L167.688 63.842L167.906 63.8854L167.949 63.6676L168.167 63.711L168.254 63.2753L168.472 63.3187L168.558 62.883L168.341 62.8395L168.428 62.4038L168.21 62.3603L168.34 61.7067L168.122 61.6633L168.252 61.0096L168.47 61.053L168.514 60.8352L168.732 60.8786L168.775 60.6608L168.993 60.7042L169.036 60.4863L169.254 60.5298L169.298 60.3119ZM45.9294 24.6132L44.6221 24.3525L44.709 23.9168L37.9548 22.5701L38.1286 21.6986L20.6985 18.2232L20.6551 18.4411L20.4372 18.3976L20.3503 18.8334L16.2106 18.008L16.0369 18.8795L45.886 24.8311L45.9294 24.6132ZM69.7649 28.9126L67.3682 28.4348L67.4985 27.7811L67.2807 27.7377L67.3241 27.5198L49.2404 23.9141L49.1969 24.132L48.979 24.0886L48.7618 25.1779L48.1082 25.0476L48.0648 25.2655L69.6345 29.5663L69.7649 28.9126ZM71.8521 21.8531L67.4945 20.9842L67.538 20.7663L55.7726 18.4204L55.7292 18.6384L50.2823 17.5523L49.761 20.1668L68.2805 23.8594L68.628 22.1164L71.6783 22.7246L71.8521 21.8531ZM101.091 27.4565L100.219 27.2827L100.393 26.4112L100.175 26.3677L100.219 26.1498L91.9395 24.499L91.8961 24.7169L91.6782 24.6735L91.5044 25.545L85.8396 24.4155L86.0134 23.544L85.7955 23.5005L85.839 23.2827L77.5596 21.6318L77.5162 21.8497L77.2983 21.8063L77.1245 22.6778L74.7279 22.1999L74.5541 23.0714L76.9508 23.5493L76.8205 24.2029L77.0383 24.2463L76.9949 24.4642L85.2742 26.115L85.3177 25.8972L85.5355 25.9406L85.6659 25.287L91.3306 26.4165L91.2004 27.0701L91.4182 27.1135L91.3748 27.3314L99.654 28.9822L99.6974 28.7643L99.9154 28.8078L100.046 28.1542L100.917 28.328L101.091 27.4565ZM13.81 10.7332L14.028 10.7766L13.9845 10.9945L18.7778 11.9503L18.8212 11.7323L19.0391 11.7758L19.3866 10.0328L19.1687 9.98935L19.2556 9.55362L19.0377 9.51019L19.1246 9.07439L18.9067 9.03099L18.9502 8.81307L18.7323 8.76964L18.7758 8.55172L18.34 8.46487L18.3834 8.24703L14.6795 7.50849L14.6361 7.72631L14.4182 7.68292L14.3748 7.90075L14.1569 7.85735L13.6356 10.4719L13.8535 10.5153L13.81 10.7332ZM61.3914 15.2365L61.1735 15.1931L61.2169 14.9752L60.999 14.9317L60.9556 15.1496L60.5198 15.0628L60.3895 15.7164L60.6074 15.7598L60.5639 15.9777L60.9997 16.0646L61.0431 15.8468L61.261 15.8902L61.3914 15.2365ZM63.788 15.7144L63.5701 15.6709L63.6135 15.453L63.1778 15.3662L63.1343 15.584L62.9165 15.5406L62.7861 16.1943L63.004 16.2377L62.9606 16.4555L63.3963 16.5424L63.4397 16.3246L63.6576 16.3681L63.788 15.7144ZM66.1846 16.1923L65.9667 16.1488L66.0102 15.9309L65.5744 15.844L65.531 16.0619L65.3131 16.0185L65.1828 16.6722L65.4006 16.7156L65.3572 16.9334L65.793 17.0203L65.8364 16.8025L66.0543 16.8459L66.1846 16.1923ZM117.078 22.2622L117.732 22.3925L117.688 22.6104L118.56 22.7841L118.516 23.0021L119.388 23.1758L119.344 23.3937L120.87 23.6978L120.826 23.9156L123.659 24.4804L123.745 24.0446L123.528 24.0012L123.571 23.7833L123.353 23.7399L123.483 23.0863L116.729 21.7396L116.686 21.9574L117.122 22.0443L117.078 22.2622ZM126.97 23.7814L125.662 23.5207L125.532 24.1743L125.314 24.1309L125.271 24.3488L124.835 24.2619L124.748 24.6976L125.402 24.8279L125.358 25.0458L125.576 25.0892L125.185 27.0502L185.755 39.127L185.798 38.9092L186.234 38.9961L186.19 39.2139L186.844 39.3443L186.801 39.5621L187.236 39.6491L187.193 39.8669L187.411 39.9104L187.367 40.1282L187.585 40.1716L187.542 40.3896L187.76 40.433L187.716 40.6509L187.934 40.6943L187.891 40.9122L188.109 40.9557L188.065 41.1736L188.283 41.217L188.24 41.4348L188.457 41.4782L188.414 41.6962L188.632 41.7396L188.588 41.9575L188.806 42.0009L188.763 42.2188L188.981 42.2623L188.894 42.6979L189.112 42.7414L189.068 42.9593L189.286 43.0027L189.243 43.2206L189.461 43.2641L189.417 43.4819L189.635 43.5254L189.592 43.7433L191.117 44.0473L191.073 44.2652L191.291 44.3087L191.248 44.5265L191.466 44.57L191.379 45.0057L191.597 45.0492L191.553 45.2671L191.771 45.3105L191.684 45.7463L191.902 45.7897L191.815 46.2255L191.162 46.0951L191.118 46.313L191.336 46.3564L191.249 46.7922L191.467 46.8357L191.424 47.0535L191.641 47.0969L191.598 47.3148L191.816 47.3583L191.772 47.5762L191.99 47.6196L191.947 47.8375L192.165 47.8809L192.121 48.0989L192.339 48.1423L192.296 48.3601L192.514 48.4035L192.47 48.6215L193.56 48.8386L193.473 49.2745L195.216 49.622L195.172 49.8398L196.697 50.1439L196.654 50.3617L197.961 50.6224L197.918 50.8403L199.007 51.0575L198.964 51.2754L200.271 51.5361L200.227 51.754L201.535 52.0146L201.491 52.2324L202.799 52.4931L202.755 52.711L204.062 52.9716L204.019 53.1895L205.108 53.4067L205.065 53.6247L206.154 53.8419L206.111 54.0597L207.418 54.3203L207.375 54.5382L208.464 54.7554L208.421 54.9733L209.51 55.1906L209.467 55.4084L210.556 55.6256L210.512 55.8435L211.82 56.1042L211.776 56.322L213.301 56.6261L213.258 56.844L215.001 57.1915L215.044 56.9736L216.134 57.1908L216.177 56.973L216.831 57.1033L216.874 56.8854L217.31 56.9724L217.353 56.7544L218.007 56.8848L218.051 56.6669L218.486 56.7538L218.53 56.5359L219.183 56.6662L219.227 56.4484L219.88 56.5787L219.924 56.3608L221.013 56.578L221.057 56.3601L225.414 57.229L225.371 57.4469L227.332 57.8378L227.288 58.0557L229.249 58.4467L229.206 58.6646L231.384 59.099L231.341 59.3169L233.084 59.6644L233.041 59.8823L235.002 60.2732L234.958 60.4912L236.919 60.8821L236.876 61.1L238.618 61.4476L238.575 61.6654L240.536 62.0563L240.493 62.2743L242.235 62.6218L242.192 62.8397L243.935 63.1872L243.892 63.4051L245.635 63.7526L245.591 63.9705L247.334 64.318L247.291 64.5359L249.034 64.8835L248.99 65.1013L250.733 65.4489L250.69 65.6668L252.215 65.9709L252.172 66.1888L253.697 66.4928L253.653 66.7107L255.178 67.0148L255.135 67.2327L256.442 67.4933L256.399 67.7112L257.706 67.9719L257.663 68.1897L258.752 68.407L258.709 68.6248L259.58 68.7986L259.537 69.0164L259.755 69.0599L259.711 69.2778L259.929 69.3212L259.972 69.1034L260.626 69.2337L260.583 69.4516L260.8 69.495L260.757 69.7129L260.975 69.7564L260.845 70.4099L261.062 70.4534L260.845 71.5427L260.627 71.4994L260.323 73.0245L260.105 72.981L259.845 74.2883L259.627 74.2448L259.366 75.5521L259.148 75.5086L258.844 77.0338L258.626 76.9903L258.279 78.7334L258.061 78.6899L257.757 80.215L257.539 80.1716L257.235 81.6967L257.017 81.6533L256.669 83.3963L256.452 83.3529L256.147 84.878L255.93 84.8346L255.582 86.5776L255.364 86.5341L255.017 88.2772L254.799 88.2338L254.451 89.9768L254.233 89.9333L253.886 91.6763L253.668 91.6328L253.32 93.3758L253.103 93.3324L252.668 95.5112L252.45 95.4677L252.32 96.1213L252.102 96.0779L252.015 96.5137L251.797 96.4702L251.754 96.6881L250.664 96.471L250.708 96.253L249.401 95.9924L249.444 95.7745L248.79 95.6442L248.834 95.4263L248.18 95.2959L248.224 95.0781L247.57 94.9478L247.614 94.7299L247.178 94.643L247.221 94.4251L246.568 94.2948L246.611 94.0769L245.957 93.9466L246.001 93.7287L245.347 93.5984L245.391 93.3805L244.737 93.2502L244.78 93.0323L244.345 92.9454L244.388 92.7275L243.735 92.5972L243.778 92.3793L243.124 92.249L243.168 92.0312L242.514 91.9008L242.558 91.6829L241.904 91.5526L241.947 91.3347L241.294 91.2044L241.337 90.9865L240.684 90.8562L240.727 90.6383L240.291 90.5514L240.335 90.3336L239.681 90.2033L239.725 89.9854L239.071 89.855L239.114 89.6371L238.461 89.5068L238.504 89.2889L237.851 89.1586L237.894 88.9408L237.24 88.8105L237.284 88.5925L236.63 88.4622L236.674 88.2443L236.02 88.114L236.063 87.8962L235.41 87.7658L235.453 87.5479L234.8 87.4176L234.843 87.1998L234.189 87.0695L234.233 86.8515L233.797 86.7647L233.841 86.5468L233.187 86.4165L233.23 86.1986L232.577 86.0682L232.62 85.8504L231.967 85.7201L232.01 85.5022L231.356 85.3719L231.4 85.154L230.746 85.0236L230.79 84.8058L230.136 84.6755L230.179 84.4575L229.526 84.3272L229.569 84.1094L228.916 83.9791L228.959 83.7612L228.305 83.6309L228.349 83.413L227.695 83.2826L227.739 83.0647L227.085 82.9344L227.128 82.7166L226.475 82.5863L226.518 82.3684L226.083 82.2815L226.126 82.0636L225.472 81.9333L225.516 81.7154L224.862 81.5851L224.906 81.3672L224.252 81.2368L224.295 81.019L223.642 80.8887L223.685 80.6708L223.032 80.5405L223.075 80.3226L222.421 80.1922L222.465 79.9743L221.811 79.844L221.855 79.6262L221.201 79.4959L221.244 79.278L220.591 79.1476L220.634 78.9297L219.981 78.7994L220.024 78.5815L219.588 78.4946L219.632 78.2767L218.978 78.1464L219.022 77.9286L218.368 77.7983L218.411 77.5804L217.758 77.45L217.801 77.2322L217.148 77.1018L217.191 76.884L216.537 76.7537L216.581 76.5358L215.927 76.4055L215.971 76.1876L215.317 76.0572L215.36 75.8394L214.707 75.7091L214.75 75.4912L214.097 75.3608L214.14 75.143L213.486 75.0126L213.53 74.7948L212.876 74.6644L212.92 74.4466L212.266 74.3163L212.31 74.0984L211.656 73.968L211.699 73.7501L211.264 73.6632L211.307 73.4454L210.653 73.315L210.697 73.0972L210.043 72.9669L210.087 72.749L209.433 72.6186L209.477 72.4008L208.823 72.2705L208.866 72.0525L208.213 71.9222L208.256 71.7044L207.602 71.5741L207.646 71.3562L206.992 71.2259L207.036 71.0079L206.382 70.8777L206.426 70.6598L205.772 70.5294L205.815 70.3116L205.162 70.1812L205.205 69.9634L204.552 69.8331L204.595 69.6151L203.941 69.4849L203.985 69.2669L203.331 69.1366L203.375 68.9187L202.721 68.7884L202.764 68.5706L202.329 68.4837L202.372 68.2658L201.718 68.1355L201.762 67.9176L201.108 67.7872L201.152 67.5694L200.498 67.439L200.541 67.2212L199.888 67.0909L199.931 66.873L199.278 66.7427L199.321 66.5248L198.668 66.3944L198.711 66.1766L198.057 66.0462L198.101 65.8284L197.447 65.698L197.491 65.4802L196.837 65.3498L196.88 65.132L196.227 65.0016L196.27 64.7838L195.617 64.6534L195.66 64.4356L195.006 64.3052L195.05 64.0874L194.396 63.957L194.44 63.7392L193.786 63.6088L193.83 63.391L193.176 63.2606L193.219 63.0427L192.566 62.9124L192.609 62.6945L191.955 62.5642L191.999 62.3464L191.345 62.2161L191.389 61.9981L190.735 61.8678L190.779 61.6499L190.125 61.5196L190.168 61.3017L189.079 61.0845L189.122 60.8667L187.379 60.5191L187.075 62.0442L186.857 62.0008L186.684 62.8723L186.901 62.9157L186.597 64.4409L186.38 64.3975L186.249 65.0511L186.031 65.0076L185.944 65.4433L185.727 65.3999L185.64 65.8357L185.422 65.7922L185.335 66.2281L185.117 66.1846L184.943 67.0561L184.725 67.0126L184.508 68.1021L184.726 68.1455L184.465 69.4527L184.683 69.4961L184.51 70.3676L184.727 70.4111L184.597 71.0648L184.815 71.1082L184.641 71.9797L184.859 72.0232L184.772 72.4589L184.99 72.5023L184.86 73.1559L185.078 73.1994L184.947 73.853L185.165 73.8964L185.035 74.5501L185.253 74.5935L185.122 75.2472L185.34 75.2906L185.21 75.9442L185.428 75.9877L185.297 76.6412L185.515 76.6847L185.385 77.3384L185.603 77.3819L185.516 77.8175L185.734 77.861L185.604 78.5147L185.821 78.5581L185.691 79.2117L185.909 79.2551L185.822 79.6909L186.04 79.7343L185.91 80.388L186.128 80.4314L185.997 81.085L186.215 81.1285L186.128 81.5643L186.346 81.6077L186.216 82.2613L186.434 82.3047L186.303 82.9584L186.521 83.0018L186.434 83.4376L186.652 83.481L186.522 84.1347L186.74 84.1781L186.609 84.8318L186.827 84.8752L186.61 85.9645L186.828 86.008L186.567 87.3152L186.349 87.2718L186.219 87.9254L186.001 87.882L185.914 88.3178L185.696 88.2743L185.653 88.4922L185.435 88.4488L185.348 88.8845L185.13 88.8411L185.087 89.0589L184.869 89.0155L184.826 89.2334L184.608 89.1899L184.564 89.4078L184.346 89.3644L184.303 89.5822L183.867 89.4953L183.824 89.7132L183.606 89.6698L183.562 89.8877L182.909 89.7573L182.865 89.9752L182.212 89.8449L182.168 90.0627L181.297 89.889L181.253 90.1068L179.728 89.8027L179.685 90.0206L176.635 89.4125L176.678 89.1945L175.589 88.9773L175.632 88.7595L175.196 88.6727L175.24 88.4547L174.804 88.3679L174.847 88.15L174.63 88.1065L174.673 87.8886L174.455 87.8452L174.499 87.6273L174.281 87.5838L174.324 87.366L174.106 87.3226L174.193 86.8868L173.975 86.8434L174.453 84.4468L174.235 84.4033L174.452 83.3139L174.235 83.2705L174.365 82.6168L174.147 82.5734L174.277 81.9198L174.059 81.8764L174.146 81.4405L173.929 81.3971L174.059 80.7435L173.841 80.7001L173.928 80.2644L173.71 80.2209L173.797 79.7851L173.579 79.7417L173.709 79.0881L173.491 79.0446L173.578 78.6089L173.36 78.5654L173.447 78.1297L173.229 78.0862L173.36 77.4325L173.142 77.3892L173.229 76.9534L173.011 76.9099L173.141 76.2563L172.923 76.2129L173.01 75.7772L172.792 75.7337L172.879 75.2979L172.661 75.2545L172.792 74.6009L172.574 74.5574L172.661 74.1216L172.443 74.0782L172.53 73.6424L172.312 73.599L172.442 72.9453L172.224 72.9019L172.311 72.4662L172.093 72.4227L172.18 71.987L171.962 71.9435L172.093 71.2899L171.875 71.2465L171.962 70.8107L171.744 70.7673L171.831 70.3315L171.613 70.2881L171.743 69.6345L171.525 69.591L171.612 69.1552L171.394 69.1118L171.481 68.676L171.263 68.6326L171.394 67.979L171.176 67.9355L171.263 67.4998L171.045 67.4564L171.088 67.2385L170.87 67.1951L170.957 66.7592L170.739 66.7158L170.826 66.2801L170.608 66.2366L170.652 66.0188L170.434 65.9753L170.477 65.7574L170.259 65.714L170.346 65.2783L170.128 65.2348L170.172 65.017L169.954 64.9735L169.997 64.7556L169.779 64.7122L169.823 64.4943L169.387 64.4074L169.431 64.1895L169.213 64.1461L169.256 63.9283L169.038 63.8848L168.951 64.3206L168.734 64.2771L168.69 64.495L168.472 64.4515L168.385 64.8873L168.167 64.8439L168.124 65.0617L167.906 65.0183L167.863 65.2361L167.645 65.1927L167.601 65.4106L167.384 65.3672L167.34 65.585L167.122 65.5416L167.079 65.7594L166.861 65.716L166.817 65.9339L166.382 65.847L166.338 66.0649L165.902 65.978L165.859 66.1959L165.423 66.109L165.38 66.3269L155.575 64.372L155.619 64.1541L154.747 63.9803L154.791 63.7624L154.355 63.6755L154.398 63.4576L153.963 63.3708L154.006 63.1529L153.788 63.1094L153.832 62.8916L153.396 62.8047L153.439 62.5868L153.222 62.5434L153.265 62.3255L153.047 62.2821L153.134 61.8463L152.916 61.8029L152.96 61.585L152.742 61.5416L152.829 61.1058L152.611 61.0623L152.654 60.8445L150.475 60.41L150.389 60.8458L150.171 60.8024L149.953 61.8918L150.171 61.9352L149.824 63.6782L150.042 63.7216L149.998 63.9396L149.78 63.8961L149.737 64.114L149.083 63.9836L149.257 63.1121L149.039 63.0687L149.169 62.4151L148.952 62.3716L149.125 61.5001L148.907 61.4567L149.081 60.5852L148.863 60.5417L148.95 60.1059L148.514 60.0191L148.558 59.8013L148.34 59.7578L148.383 59.5399L148.166 59.4965L149.165 54.4853L148.293 54.3115L148.033 55.6188L147.815 55.5753L147.771 55.7932L146.028 55.4456L145.985 55.6636L145.767 55.6201L145.506 56.9274L145.288 56.884L145.071 57.9733L144.853 57.9299L144.636 59.0193L144.418 58.9759L144.245 59.8474L144.027 59.8039L143.853 60.6754L143.635 60.6319L143.461 61.5034L143.243 61.46L143.069 62.3315L142.852 62.2881L142.721 62.9417L142.503 62.8982L142.33 63.7698L142.112 63.7263L141.982 64.3799L141.764 64.3365L141.633 64.9901L141.415 64.9467L141.285 65.6003L141.067 65.5569L140.937 66.2105L140.719 66.1671L140.589 66.8207L140.371 66.7773L140.284 67.213L140.066 67.1696L139.936 67.8232L139.718 67.7798L139.631 68.2155L139.413 68.1721L139.283 68.8257L139.065 68.7822L138.978 69.218L138.76 69.1746L138.63 69.8282L138.412 69.7847L138.325 70.2205L138.107 70.177L138.02 70.6128L137.802 70.5694L137.716 71.0051L137.498 70.9617L137.367 71.6153L137.149 71.5719L137.063 72.0076L136.845 71.9642L136.758 72.3999L136.54 72.3564L136.453 72.7923L136.235 72.7488L136.148 73.1846L135.93 73.1411L135.843 73.5769L135.626 73.5334L135.539 73.9692L135.321 73.9257L135.234 74.3615L135.016 74.318L134.973 74.536L134.755 74.4925L134.668 74.9282L134.45 74.8848L134.363 75.3205L134.145 75.2771L134.058 75.7128L133.841 75.6694L133.797 75.8873L133.579 75.8438L133.492 76.2796L133.274 76.2362L133.188 76.6719L132.97 76.6285L132.883 77.0642L132.665 77.0208L132.621 77.2386L132.404 77.1952L132.317 77.631L132.099 77.5875L132.055 77.8054L131.837 77.762L131.751 78.1977L131.533 78.1542L131.489 78.3722L131.271 78.3287L131.185 78.7645L130.967 78.7211L130.923 78.9389L130.705 78.8954L130.618 79.3312L130.401 79.2878L130.357 79.5056L130.139 79.4622L130.052 79.8979L129.835 79.8545L129.791 80.0724L129.573 80.0289L129.486 80.4647L129.268 80.4213L129.225 80.6391L129.007 80.5956L128.964 80.8136L128.746 80.7701L128.659 81.2059L128.441 81.1625L128.398 81.3803L128.18 81.3369L128.136 81.5547L127.918 81.5113L127.832 81.947L127.614 81.9036L127.57 82.1215L127.352 82.078L127.309 82.2959L127.091 82.2525L127.004 82.6882L126.786 82.6448L126.743 82.8627L126.525 82.8192L126.482 83.0371L126.264 82.9937L126.22 83.2115L126.002 83.1681L125.959 83.386L125.741 83.3425L125.654 83.7783L125.436 83.7349L125.393 83.9527L125.175 83.9092L125.131 84.1272L124.914 84.0837L124.87 84.3016L124.652 84.2581L124.609 84.476L124.391 84.4326L124.347 84.6505L124.13 84.6071L124.043 85.0427L123.825 84.9993L123.781 85.2172L123.564 85.1738L123.52 85.3916L123.302 85.3482L123.259 85.5661L123.041 85.5226L122.997 85.7405L122.78 85.6971L122.736 85.9149L122.518 85.8715L122.475 86.0894L122.257 86.046L122.213 86.2638L121.996 86.2204L121.952 86.4382L121.734 86.3948L121.691 86.6127L121.473 86.5692L121.43 86.7871L121.212 86.7437L121.168 86.9615L120.95 86.9181L120.907 87.136L120.689 87.0926L120.646 87.3104L120.428 87.267L120.384 87.4848L120.166 87.4414L120.123 87.6593L119.905 87.6159L119.862 87.8337L119.644 87.7903L119.6 88.0081L119.382 87.9647L119.339 88.1826L119.121 88.1392L119.078 88.357L118.86 88.3136L118.816 88.5315L118.598 88.488L118.555 88.7059L118.337 88.6625L118.294 88.8803L118.076 88.8369L118.032 89.0547L117.815 89.0113L117.771 89.2292L117.553 89.1858L117.51 89.4036L117.074 89.3168L117.031 89.5346L116.813 89.4911L116.769 89.7091L116.551 89.6656L116.508 89.8835L116.29 89.84L116.247 90.058L116.029 90.0145L115.985 90.2324L115.767 90.189L115.724 90.4068L115.288 90.3199L115.245 90.5378L115.027 90.4943L114.983 90.7122L114.766 90.6688L114.722 90.8867L114.504 90.8432L114.461 91.061L114.025 90.9742L113.982 91.192L113.764 91.1486L113.72 91.3665L113.502 91.3231L113.459 91.5409L113.241 91.4975L113.198 91.7154L112.762 91.6285L112.718 91.8464L112.501 91.8029L112.457 92.0208L112.239 91.9774L112.196 92.1952L111.76 92.1083L111.717 92.3263L111.499 92.2828L111.455 92.5007L111.237 92.4572L111.194 92.6751L110.758 92.5882L110.715 92.8061L110.497 92.7626L110.453 92.9805L110.018 92.8936L109.974 93.1115L109.756 93.0681L109.713 93.2859L109.495 93.2425L109.452 93.4604L109.016 93.3735L108.973 93.5914L108.755 93.548L108.711 93.7658L108.275 93.6789L108.232 93.8968L108.014 93.8533L107.971 94.0713L107.535 93.9843L107.491 94.2022L107.274 94.1587L107.23 94.3767L106.794 94.2898L106.751 94.5077L106.315 94.4208L106.272 94.6387L106.054 94.5952L106.01 94.8131L105.575 94.7262L105.531 94.9441L105.313 94.9006L105.27 95.1186L105.052 95.0751L105.095 94.8572L104.878 94.8138L104.965 94.378L104.747 94.3345L104.79 94.1167L104.572 94.0733L104.659 93.6375L104.441 93.5941L104.485 93.3761L104.267 93.3327L104.354 92.897L104.136 92.8536L104.179 92.6357L103.961 92.5922L104.048 92.1564L103.83 92.113L103.917 91.6773L103.699 91.6338L103.743 91.4159L103.525 91.3725L103.612 90.9367L103.394 90.8933L103.437 90.6755L103.219 90.632L103.306 90.1962L103.088 90.1528L103.132 89.9349L102.914 89.8914L103.001 89.4557L102.783 89.4123L102.87 88.9765L102.652 88.9331L102.696 88.7152L102.478 88.6717L102.565 88.236L102.347 88.1926L102.39 87.9747L102.172 87.9313L102.259 87.4955L102.041 87.4521L102.128 87.0163L101.91 86.9729L101.954 86.755L101.736 86.7115L101.823 86.2758L101.605 86.2324L101.648 86.0145L101.43 85.971L101.517 85.5353L101.299 85.4918L101.343 85.274L101.125 85.2305L101.212 84.7948L100.994 84.7513L101.081 84.3156L100.863 84.2721L100.906 84.0543L100.688 84.0108L100.775 83.575L100.557 83.5316L100.601 83.3137L100.383 83.2703L100.47 82.8345L100.252 82.7911L100.296 82.5732L100.078 82.5298L100.165 82.094L99.9467 82.0506L100.034 81.6148L99.8157 81.5714L99.8591 81.3535L99.6412 81.3101L99.7281 80.8744L99.5102 80.8309L99.5536 80.613L99.3358 80.5696L99.4227 80.1338L99.2048 80.0903L99.2483 79.8725L99.0304 79.829L99.1172 79.3933L98.8994 79.3499L98.9862 78.914L98.7684 78.8706L98.8553 78.4349L99.291 78.5218L99.3345 78.3039L99.5524 78.3473L99.5958 78.1295L100.032 78.2163L100.075 77.9985L100.293 78.0419L100.336 77.8241L100.554 77.8675L100.598 77.6496L101.033 77.7365L101.077 77.5186L101.295 77.562L101.338 77.3441L101.556 77.3876L101.599 77.1697L102.035 77.2566L102.079 77.0388L102.297 77.0822L102.34 76.8644L102.558 76.9078L102.601 76.6899L103.037 76.7768L103.081 76.5589L103.298 76.6023L103.342 76.3845L103.56 76.4279L103.603 76.2101L103.821 76.2534L103.864 76.0356L104.3 76.1225L104.344 75.9046L104.562 75.948L104.605 75.7301L104.823 75.7736L104.866 75.5557L105.084 75.5992L105.128 75.3813L105.563 75.4682L105.607 75.2503L105.825 75.2937L105.868 75.0758L106.086 75.1193L106.129 74.9015L106.347 74.9449L106.391 74.727L106.609 74.7705L106.652 74.5526L106.87 74.596L106.913 74.3781L107.131 74.4216L107.175 74.2037L107.61 74.2906L107.654 74.0728L107.872 74.1161L107.915 73.8983L108.133 73.9417L108.176 73.7238L108.394 73.7673L108.438 73.5494L108.656 73.5928L108.699 73.375L108.917 73.4184L108.961 73.2005L109.178 73.244L109.222 73.0261L109.44 73.0695L109.483 72.8516L109.701 72.8951L109.744 72.6772L109.962 72.7206L110.006 72.5028L110.224 72.5462L110.267 72.3284L110.485 72.3718L110.528 72.1539L110.746 72.1974L110.79 71.9795L111.008 72.0229L111.051 71.8051L111.269 71.8485L111.312 71.6307L111.53 71.674L111.574 71.4562L111.792 71.4997L111.835 71.2817L112.053 71.3252L112.096 71.1073L112.314 71.1507L112.401 70.715L112.619 70.7585L112.662 70.5406L112.88 70.584L112.924 70.3661L113.142 70.4096L113.185 70.1917L113.403 70.2352L113.446 70.0173L113.664 70.0608L113.708 69.8428L113.926 69.8863L114.012 69.4505L114.23 69.4939L114.274 69.2761L114.492 69.3195L114.535 69.1017L114.753 69.1451L114.796 68.9272L115.014 68.9707L115.101 68.5349L115.319 68.5784L115.362 68.3605L115.58 68.4039L115.624 68.1861L115.842 68.2295L115.885 68.0116L116.103 68.055L116.19 67.6193L116.408 67.6628L116.451 67.4449L116.669 67.4883L116.713 67.2704L116.93 67.3139L117.017 66.8781L117.235 66.9216L117.279 66.7037L117.496 66.7472L117.583 66.3114L117.801 66.3548L117.845 66.1369L118.063 66.1803L118.149 65.7447L118.367 65.7881L118.411 65.5702L118.629 65.6136L118.716 65.1779L118.933 65.2213L118.977 65.0035L119.195 65.0469L119.282 64.6111L119.499 64.6546L119.586 64.2188L119.804 64.2623L119.848 64.0444L120.066 64.0878L120.152 63.6521L120.37 63.6955L120.457 63.2598L120.675 63.3033L120.718 63.0853L120.936 63.1288L121.023 62.693L121.241 62.7364L121.328 62.3007L121.546 62.3442L121.633 61.9084L121.851 61.9518L121.938 61.5161L122.155 61.5596L122.242 61.1238L122.46 61.1672L122.547 60.7315L122.765 60.7749L122.852 60.3392L123.07 60.3826L123.157 59.9469L123.374 59.9903L123.461 59.5545L123.679 59.598L123.81 58.9444L124.027 58.9878L124.114 58.552L124.332 58.5955L124.419 58.1598L124.637 58.2032L124.767 57.5495L124.985 57.593L125.115 56.9393L125.333 56.9828L125.42 56.547L125.638 56.5904L125.768 55.9369L125.986 55.9803L126.117 55.3267L126.334 55.3701L126.465 54.7164L126.683 54.7599L126.856 53.8884L127.074 53.9318L127.205 53.2782L127.423 53.3217L127.596 52.4502L127.814 52.4936L127.988 51.6221L128.206 51.6656L128.38 50.7941L128.598 50.8375L128.771 49.9659L128.989 50.0094L129.206 48.9201L129.424 48.9635L129.685 47.6562L129.903 47.6997L130.12 46.6103L125.545 45.698L125.588 45.4801L120.141 44.394L120.185 44.1762L116.045 43.3508L115.958 43.7865L115.74 43.7431L115.697 43.961L113.082 43.4397L112.952 44.0933L112.734 44.0499L112.691 44.2677L112.473 44.2243L112.429 44.4422L109.597 43.8774L109.64 43.6595L108.551 43.4423L108.594 43.2245L107.723 43.0507L107.766 42.8328L106.895 42.659L106.938 42.4412L106.285 42.3109L106.328 42.093L105.456 41.9192L105.5 41.7013L104.846 41.571L104.89 41.3531L104.018 41.1793L104.062 40.9614L103.19 40.7876L103.234 40.5698L101.055 40.1354L101.098 39.9175L93.2547 38.3536L93.2982 38.1357L86.3261 36.7456L86.3696 36.5277L80.0512 35.2679L80.0946 35.05L73.3404 33.7033L73.3839 33.4854L71.6409 33.1379L71.6843 32.92L71.4664 32.8766L71.5098 32.6587L69.9848 32.3546L70.0282 32.1367L69.1567 31.9629L69.4173 30.6557L47.8475 26.3549L47.8041 26.5727L47.5863 26.5293L47.4993 26.9651L45.5385 26.5741L45.6688 25.9205L14.5124 19.7083L14.4256 20.144L12.2468 19.7096L12.5074 18.4023L12.2895 18.3589L12.2461 18.5768L11.1567 18.3595L11.4173 17.0523L9.23858 16.6179L9.36892 15.9642L8.93317 15.8773L8.80284 16.531L0.741419 14.9236L1.00207 13.6164L1.43787 13.7032L1.48128 13.4853L2.35278 13.6591L2.39626 13.4412L2.83198 13.5281L2.87541 13.3102L3.52907 13.4406L3.57251 13.2227L3.79034 13.2662L3.83378 13.0483L4.26954 13.1351L4.31303 12.9173L4.53091 12.9607L4.57434 12.7428L5.01005 12.8298L5.05349 12.6118L5.27141 12.6553L5.31482 12.4374L5.53273 12.4809L5.57618 12.2629L5.79404 12.3064L5.83749 12.0885L6.05533 12.1319L6.14224 11.6963L6.36007 11.7397L6.44701 11.3039L6.66487 11.3474L6.70832 11.1295L9.75861 11.7377L9.67173 12.1735L10.1074 12.2603L10.2378 11.6067L10.4557 11.6502L10.4991 11.4323L11.3706 11.606L11.5009 10.9524L12.3724 11.1262L14.4576 0.668042L14.6755 0.71153L14.7624 0.275776L15.1982 0.362716L15.2416 0.144802L19.1634 0.926747L19.12 1.14464L19.3378 1.18807L19.2944 1.40599L19.5123 1.44938L19.4254 1.88513L19.6433 1.92859L19.0785 4.76095L19.2964 4.8044L19.1661 5.45807L19.384 5.50155L19.2971 5.93722L19.5149 5.98066L19.428 6.41649L19.6459 6.45989L19.559 6.89564L19.7769 6.9391L19.69 7.37484L19.9079 7.41833L19.821 7.85399L20.0389 7.89742L19.952 8.33326L20.1699 8.37666L20.083 8.81241L20.3009 8.85586L20.214 9.29161L20.4319 9.3351L20.345 9.77084L20.5629 9.8143L20.476 10.25L20.6938 10.2934L20.607 10.7292L20.8248 10.7727L20.738 11.2084L20.9559 11.2519L20.8255 11.9055L21.0434 11.9489L20.9565 12.3847L21.1744 12.4281L21.0875 12.8639L21.3054 12.9073L21.2185 13.343L21.4364 13.3865L21.2192 14.4759L38.8672 17.9947L38.9975 17.3411L40.5226 17.6452L40.5661 17.4273L41.4376 17.6011L41.4811 17.3832L42.3526 17.5569L42.396 17.339L42.8317 17.4259L42.8751 17.2081L43.3109 17.295L43.3544 17.0771L43.79 17.164L43.8335 16.9461L44.0514 16.9895L44.0948 16.7717L44.5307 16.8585L44.5741 16.6407L44.792 16.6842L44.8354 16.4663L45.0532 16.5097L45.0967 16.2918L45.3146 16.3353L45.358 16.1173L45.5759 16.1608L45.6193 15.9429L45.8372 15.9864L45.8807 15.7685L46.0985 15.812L46.1419 15.594L46.3598 15.6375L46.4033 15.4196L46.6212 15.4631L46.6646 15.2452L46.8825 15.2886L46.9694 14.8529L47.1873 14.8964L47.2307 14.6784L47.4485 14.7219L47.5354 14.2861L47.7533 14.3296L47.7968 14.1117L48.0147 14.1551L48.1015 13.7194L48.3195 13.7628L48.4063 13.3271L48.6241 13.3706L48.6676 13.1526L48.8855 13.1961L48.9724 12.7603L49.1903 12.8037L49.2771 12.3681L49.495 12.4115L49.5819 11.9757L68.5371 15.7551L68.624 15.3195L72.9815 16.1883L73.1119 15.5346L73.3298 15.5781L73.3732 15.3602L74.4626 15.5774L74.506 15.3596L74.724 15.403L74.7674 15.1851L75.2031 15.272L75.2466 15.0541L81.1292 16.227L81.1726 16.0092L88.1447 17.3993L88.1882 17.1815L95.1602 18.5716L95.2037 18.3538L102.176 19.7439L102.219 19.526L103.526 19.7866L103.483 20.0046L103.919 20.0914L103.875 20.3093L105.4 20.6134L105.357 20.8312L105.575 20.8747L105.401 21.7462L106.926 22.0503L107.317 20.0894L107.535 20.1328L107.622 19.6971L107.84 19.7405L107.883 19.5227L112.241 20.3915L112.284 20.1736L112.502 20.217L112.546 19.9992L112.763 20.0427L112.807 19.8248L113.678 19.9985L113.635 20.2165L113.853 20.2599L113.809 20.4777L126.228 22.9539L126.272 22.7361L126.49 22.7795L126.533 22.5616L126.751 22.6051L126.794 22.3872L127.23 22.4741L126.97 23.7814Z"/>
</mask>
<path fill-rule="evenodd" clip-rule="evenodd" d="M169.298 60.3119L168.644 60.1815L168.731 59.7458L168.513 59.7023L168.991 57.3057L168.773 57.2623L168.73 57.4801L168.294 57.3933L168.25 57.6111L167.815 57.5242L167.771 57.7421L167.335 57.6552L167.292 57.8731L166.856 57.7862L166.813 58.0041L166.595 57.9607L166.551 58.1785L166.334 58.1351L166.247 58.5708L166.029 58.5274L165.942 58.9632L165.724 58.9197L165.55 59.7912L165.332 59.7478L165.202 60.4014L164.984 60.358L164.897 60.7937L164.679 60.7503L164.636 60.9682L164.418 60.9247L164.375 61.1426L164.157 61.0991L164.07 61.5349L163.852 61.4914L163.809 61.7094L163.373 61.6225L163.329 61.8404L163.112 61.7969L163.068 62.0147L162.85 61.9713L162.807 62.1892L162.371 62.1023L162.328 62.3202L162.11 62.2768L162.066 62.4946L161.631 62.4078L161.587 62.6256L160.933 62.4953L160.89 62.7131L160.236 62.5828L160.193 62.8007L159.757 62.7138L159.801 62.496L159.365 62.4091L159.408 62.1912L159.626 62.2346L159.67 62.0168L160.105 62.1037L160.149 61.8858L160.802 62.0161L160.846 61.7982L161.282 61.8851L161.325 61.6672L161.761 61.7541L161.804 61.5362L162.022 61.5797L162.066 61.3618L162.284 61.4053L162.327 61.1874L162.545 61.2308L162.588 61.0129L162.806 61.0564L162.85 60.8385L163.067 60.8819L163.111 60.6641L163.329 60.7075L163.372 60.4896L163.59 60.5331L163.677 60.0973L163.895 60.1407L163.982 59.705L164.2 59.7484L164.547 58.0054L164.329 57.962L164.46 57.3083L164.242 57.2649L164.372 56.6113L164.154 56.5679L164.241 56.1321L164.023 56.0887L164.067 55.8708L163.849 55.8273L163.936 55.3916L161.757 54.9572L161.8 54.7393L161.582 54.6959L161.669 54.2601L157.312 53.3913L157.355 53.1734L155.176 52.739L153.569 60.8004L153.787 60.8438L153.7 61.2795L153.918 61.323L153.875 61.5409L154.092 61.5843L154.049 61.8022L154.267 61.8457L154.223 62.0635L154.441 62.107L154.398 62.3248L154.616 62.3683L154.572 62.5861L155.008 62.6731L154.965 62.8909L155.618 63.0213L155.575 63.2391L162.329 64.5858L162.285 64.8037L164.9 65.325L164.943 65.1072L165.597 65.2375L165.641 65.0196L166.076 65.1065L166.12 64.8886L166.338 64.9321L166.381 64.7142L166.817 64.8011L166.86 64.5832L167.078 64.6267L167.122 64.4088L167.339 64.4522L167.426 64.0164L167.644 64.0599L167.688 63.842L167.906 63.8854L167.949 63.6676L168.167 63.711L168.254 63.2753L168.472 63.3187L168.558 62.883L168.341 62.8395L168.428 62.4038L168.21 62.3603L168.34 61.7067L168.122 61.6633L168.252 61.0096L168.47 61.053L168.514 60.8352L168.732 60.8786L168.775 60.6608L168.993 60.7042L169.036 60.4863L169.254 60.5298L169.298 60.3119ZM45.9294 24.6132L44.6221 24.3525L44.709 23.9168L37.9548 22.5701L38.1286 21.6986L20.6985 18.2232L20.6551 18.4411L20.4372 18.3976L20.3503 18.8334L16.2106 18.008L16.0369 18.8795L45.886 24.8311L45.9294 24.6132ZM69.7649 28.9126L67.3682 28.4348L67.4985 27.7811L67.2807 27.7377L67.3241 27.5198L49.2404 23.9141L49.1969 24.132L48.979 24.0886L48.7618 25.1779L48.1082 25.0476L48.0648 25.2655L69.6345 29.5663L69.7649 28.9126ZM71.8521 21.8531L67.4945 20.9842L67.538 20.7663L55.7726 18.4204L55.7292 18.6384L50.2823 17.5523L49.761 20.1668L68.2805 23.8594L68.628 22.1164L71.6783 22.7246L71.8521 21.8531ZM101.091 27.4565L100.219 27.2827L100.393 26.4112L100.175 26.3677L100.219 26.1498L91.9395 24.499L91.8961 24.7169L91.6782 24.6735L91.5044 25.545L85.8396 24.4155L86.0134 23.544L85.7955 23.5005L85.839 23.2827L77.5596 21.6318L77.5162 21.8497L77.2983 21.8063L77.1245 22.6778L74.7279 22.1999L74.5541 23.0714L76.9508 23.5493L76.8205 24.2029L77.0383 24.2463L76.9949 24.4642L85.2742 26.115L85.3177 25.8972L85.5355 25.9406L85.6659 25.287L91.3306 26.4165L91.2004 27.0701L91.4182 27.1135L91.3748 27.3314L99.654 28.9822L99.6974 28.7643L99.9154 28.8078L100.046 28.1542L100.917 28.328L101.091 27.4565ZM13.81 10.7332L14.028 10.7766L13.9845 10.9945L18.7778 11.9503L18.8212 11.7323L19.0391 11.7758L19.3866 10.0328L19.1687 9.98935L19.2556 9.55362L19.0377 9.51019L19.1246 9.07439L18.9067 9.03099L18.9502 8.81307L18.7323 8.76964L18.7758 8.55172L18.34 8.46487L18.3834 8.24703L14.6795 7.50849L14.6361 7.72631L14.4182 7.68292L14.3748 7.90075L14.1569 7.85735L13.6356 10.4719L13.8535 10.5153L13.81 10.7332ZM61.3914 15.2365L61.1735 15.1931L61.2169 14.9752L60.999 14.9317L60.9556 15.1496L60.5198 15.0628L60.3895 15.7164L60.6074 15.7598L60.5639 15.9777L60.9997 16.0646L61.0431 15.8468L61.261 15.8902L61.3914 15.2365ZM63.788 15.7144L63.5701 15.6709L63.6135 15.453L63.1778 15.3662L63.1343 15.584L62.9165 15.5406L62.7861 16.1943L63.004 16.2377L62.9606 16.4555L63.3963 16.5424L63.4397 16.3246L63.6576 16.3681L63.788 15.7144ZM66.1846 16.1923L65.9667 16.1488L66.0102 15.9309L65.5744 15.844L65.531 16.0619L65.3131 16.0185L65.1828 16.6722L65.4006 16.7156L65.3572 16.9334L65.793 17.0203L65.8364 16.8025L66.0543 16.8459L66.1846 16.1923ZM117.078 22.2622L117.732 22.3925L117.688 22.6104L118.56 22.7841L118.516 23.0021L119.388 23.1758L119.344 23.3937L120.87 23.6978L120.826 23.9156L123.659 24.4804L123.745 24.0446L123.528 24.0012L123.571 23.7833L123.353 23.7399L123.483 23.0863L116.729 21.7396L116.686 21.9574L117.122 22.0443L117.078 22.2622ZM126.97 23.7814L125.662 23.5207L125.532 24.1743L125.314 24.1309L125.271 24.3488L124.835 24.2619L124.748 24.6976L125.402 24.8279L125.358 25.0458L125.576 25.0892L125.185 27.0502L185.755 39.127L185.798 38.9092L186.234 38.9961L186.19 39.2139L186.844 39.3443L186.801 39.5621L187.236 39.6491L187.193 39.8669L187.411 39.9104L187.367 40.1282L187.585 40.1716L187.542 40.3896L187.76 40.433L187.716 40.6509L187.934 40.6943L187.891 40.9122L188.109 40.9557L188.065 41.1736L188.283 41.217L188.24 41.4348L188.457 41.4782L188.414 41.6962L188.632 41.7396L188.588 41.9575L188.806 42.0009L188.763 42.2188L188.981 42.2623L188.894 42.6979L189.112 42.7414L189.068 42.9593L189.286 43.0027L189.243 43.2206L189.461 43.2641L189.417 43.4819L189.635 43.5254L189.592 43.7433L191.117 44.0473L191.073 44.2652L191.291 44.3087L191.248 44.5265L191.466 44.57L191.379 45.0057L191.597 45.0492L191.553 45.2671L191.771 45.3105L191.684 45.7463L191.902 45.7897L191.815 46.2255L191.162 46.0951L191.118 46.313L191.336 46.3564L191.249 46.7922L191.467 46.8357L191.424 47.0535L191.641 47.0969L191.598 47.3148L191.816 47.3583L191.772 47.5762L191.99 47.6196L191.947 47.8375L192.165 47.8809L192.121 48.0989L192.339 48.1423L192.296 48.3601L192.514 48.4035L192.47 48.6215L193.56 48.8386L193.473 49.2745L195.216 49.622L195.172 49.8398L196.697 50.1439L196.654 50.3617L197.961 50.6224L197.918 50.8403L199.007 51.0575L198.964 51.2754L200.271 51.5361L200.227 51.754L201.535 52.0146L201.491 52.2324L202.799 52.4931L202.755 52.711L204.062 52.9716L204.019 53.1895L205.108 53.4067L205.065 53.6247L206.154 53.8419L206.111 54.0597L207.418 54.3203L207.375 54.5382L208.464 54.7554L208.421 54.9733L209.51 55.1906L209.467 55.4084L210.556 55.6256L210.512 55.8435L211.82 56.1042L211.776 56.322L213.301 56.6261L213.258 56.844L215.001 57.1915L215.044 56.9736L216.134 57.1908L216.177 56.973L216.831 57.1033L216.874 56.8854L217.31 56.9724L217.353 56.7544L218.007 56.8848L218.051 56.6669L218.486 56.7538L218.53 56.5359L219.183 56.6662L219.227 56.4484L219.88 56.5787L219.924 56.3608L221.013 56.578L221.057 56.3601L225.414 57.229L225.371 57.4469L227.332 57.8378L227.288 58.0557L229.249 58.4467L229.206 58.6646L231.384 59.099L231.341 59.3169L233.084 59.6644L233.041 59.8823L235.002 60.2732L234.958 60.4912L236.919 60.8821L236.876 61.1L238.618 61.4476L238.575 61.6654L240.536 62.0563L240.493 62.2743L242.235 62.6218L242.192 62.8397L243.935 63.1872L243.892 63.4051L245.635 63.7526L245.591 63.9705L247.334 64.318L247.291 64.5359L249.034 64.8835L248.99 65.1013L250.733 65.4489L250.69 65.6668L252.215 65.9709L252.172 66.1888L253.697 66.4928L253.653 66.7107L255.178 67.0148L255.135 67.2327L256.442 67.4933L256.399 67.7112L257.706 67.9719L257.663 68.1897L258.752 68.407L258.709 68.6248L259.58 68.7986L259.537 69.0164L259.755 69.0599L259.711 69.2778L259.929 69.3212L259.972 69.1034L260.626 69.2337L260.583 69.4516L260.8 69.495L260.757 69.7129L260.975 69.7564L260.845 70.4099L261.062 70.4534L260.845 71.5427L260.627 71.4994L260.323 73.0245L260.105 72.981L259.845 74.2883L259.627 74.2448L259.366 75.5521L259.148 75.5086L258.844 77.0338L258.626 76.9903L258.279 78.7334L258.061 78.6899L257.757 80.215L257.539 80.1716L257.235 81.6967L257.017 81.6533L256.669 83.3963L256.452 83.3529L256.147 84.878L255.93 84.8346L255.582 86.5776L255.364 86.5341L255.017 88.2772L254.799 88.2338L254.451 89.9768L254.233 89.9333L253.886 91.6763L253.668 91.6328L253.32 93.3758L253.103 93.3324L252.668 95.5112L252.45 95.4677L252.32 96.1213L252.102 96.0779L252.015 96.5137L251.797 96.4702L251.754 96.6881L250.664 96.471L250.708 96.253L249.401 95.9924L249.444 95.7745L248.79 95.6442L248.834 95.4263L248.18 95.2959L248.224 95.0781L247.57 94.9478L247.614 94.7299L247.178 94.643L247.221 94.4251L246.568 94.2948L246.611 94.0769L245.957 93.9466L246.001 93.7287L245.347 93.5984L245.391 93.3805L244.737 93.2502L244.78 93.0323L244.345 92.9454L244.388 92.7275L243.735 92.5972L243.778 92.3793L243.124 92.249L243.168 92.0312L242.514 91.9008L242.558 91.6829L241.904 91.5526L241.947 91.3347L241.294 91.2044L241.337 90.9865L240.684 90.8562L240.727 90.6383L240.291 90.5514L240.335 90.3336L239.681 90.2033L239.725 89.9854L239.071 89.855L239.114 89.6371L238.461 89.5068L238.504 89.2889L237.851 89.1586L237.894 88.9408L237.24 88.8105L237.284 88.5925L236.63 88.4622L236.674 88.2443L236.02 88.114L236.063 87.8962L235.41 87.7658L235.453 87.5479L234.8 87.4176L234.843 87.1998L234.189 87.0695L234.233 86.8515L233.797 86.7647L233.841 86.5468L233.187 86.4165L233.23 86.1986L232.577 86.0682L232.62 85.8504L231.967 85.7201L232.01 85.5022L231.356 85.3719L231.4 85.154L230.746 85.0236L230.79 84.8058L230.136 84.6755L230.179 84.4575L229.526 84.3272L229.569 84.1094L228.916 83.9791L228.959 83.7612L228.305 83.6309L228.349 83.413L227.695 83.2826L227.739 83.0647L227.085 82.9344L227.128 82.7166L226.475 82.5863L226.518 82.3684L226.083 82.2815L226.126 82.0636L225.472 81.9333L225.516 81.7154L224.862 81.5851L224.906 81.3672L224.252 81.2368L224.295 81.019L223.642 80.8887L223.685 80.6708L223.032 80.5405L223.075 80.3226L222.421 80.1922L222.465 79.9743L221.811 79.844L221.855 79.6262L221.201 79.4959L221.244 79.278L220.591 79.1476L220.634 78.9297L219.981 78.7994L220.024 78.5815L219.588 78.4946L219.632 78.2767L218.978 78.1464L219.022 77.9286L218.368 77.7983L218.411 77.5804L217.758 77.45L217.801 77.2322L217.148 77.1018L217.191 76.884L216.537 76.7537L216.581 76.5358L215.927 76.4055L215.971 76.1876L215.317 76.0572L215.36 75.8394L214.707 75.7091L214.75 75.4912L214.097 75.3608L214.14 75.143L213.486 75.0126L213.53 74.7948L212.876 74.6644L212.92 74.4466L212.266 74.3163L212.31 74.0984L211.656 73.968L211.699 73.7501L211.264 73.6632L211.307 73.4454L210.653 73.315L210.697 73.0972L210.043 72.9669L210.087 72.749L209.433 72.6186L209.477 72.4008L208.823 72.2705L208.866 72.0525L208.213 71.9222L208.256 71.7044L207.602 71.5741L207.646 71.3562L206.992 71.2259L207.036 71.0079L206.382 70.8777L206.426 70.6598L205.772 70.5294L205.815 70.3116L205.162 70.1812L205.205 69.9634L204.552 69.8331L204.595 69.6151L203.941 69.4849L203.985 69.2669L203.331 69.1366L203.375 68.9187L202.721 68.7884L202.764 68.5706L202.329 68.4837L202.372 68.2658L201.718 68.1355L201.762 67.9176L201.108 67.7872L201.152 67.5694L200.498 67.439L200.541 67.2212L199.888 67.0909L199.931 66.873L199.278 66.7427L199.321 66.5248L198.668 66.3944L198.711 66.1766L198.057 66.0462L198.101 65.8284L197.447 65.698L197.491 65.4802L196.837 65.3498L196.88 65.132L196.227 65.0016L196.27 64.7838L195.617 64.6534L195.66 64.4356L195.006 64.3052L195.05 64.0874L194.396 63.957L194.44 63.7392L193.786 63.6088L193.83 63.391L193.176 63.2606L193.219 63.0427L192.566 62.9124L192.609 62.6945L191.955 62.5642L191.999 62.3464L191.345 62.2161L191.389 61.9981L190.735 61.8678L190.779 61.6499L190.125 61.5196L190.168 61.3017L189.079 61.0845L189.122 60.8667L187.379 60.5191L187.075 62.0442L186.857 62.0008L186.684 62.8723L186.901 62.9157L186.597 64.4409L186.38 64.3975L186.249 65.0511L186.031 65.0076L185.944 65.4433L185.727 65.3999L185.64 65.8357L185.422 65.7922L185.335 66.2281L185.117 66.1846L184.943 67.0561L184.725 67.0126L184.508 68.1021L184.726 68.1455L184.465 69.4527L184.683 69.4961L184.51 70.3676L184.727 70.4111L184.597 71.0648L184.815 71.1082L184.641 71.9797L184.859 72.0232L184.772 72.4589L184.99 72.5023L184.86 73.1559L185.078 73.1994L184.947 73.853L185.165 73.8964L185.035 74.5501L185.253 74.5935L185.122 75.2472L185.34 75.2906L185.21 75.9442L185.428 75.9877L185.297 76.6412L185.515 76.6847L185.385 77.3384L185.603 77.3819L185.516 77.8175L185.734 77.861L185.604 78.5147L185.821 78.5581L185.691 79.2117L185.909 79.2551L185.822 79.6909L186.04 79.7343L185.91 80.388L186.128 80.4314L185.997 81.085L186.215 81.1285L186.128 81.5643L186.346 81.6077L186.216 82.2613L186.434 82.3047L186.303 82.9584L186.521 83.0018L186.434 83.4376L186.652 83.481L186.522 84.1347L186.74 84.1781L186.609 84.8318L186.827 84.8752L186.61 85.9645L186.828 86.008L186.567 87.3152L186.349 87.2718L186.219 87.9254L186.001 87.882L185.914 88.3178L185.696 88.2743L185.653 88.4922L185.435 88.4488L185.348 88.8845L185.13 88.8411L185.087 89.0589L184.869 89.0155L184.826 89.2334L184.608 89.1899L184.564 89.4078L184.346 89.3644L184.303 89.5822L183.867 89.4953L183.824 89.7132L183.606 89.6698L183.562 89.8877L182.909 89.7573L182.865 89.9752L182.212 89.8449L182.168 90.0627L181.297 89.889L181.253 90.1068L179.728 89.8027L179.685 90.0206L176.635 89.4125L176.678 89.1945L175.589 88.9773L175.632 88.7595L175.196 88.6727L175.24 88.4547L174.804 88.3679L174.847 88.15L174.63 88.1065L174.673 87.8886L174.455 87.8452L174.499 87.6273L174.281 87.5838L174.324 87.366L174.106 87.3226L174.193 86.8868L173.975 86.8434L174.453 84.4468L174.235 84.4033L174.452 83.3139L174.235 83.2705L174.365 82.6168L174.147 82.5734L174.277 81.9198L174.059 81.8764L174.146 81.4405L173.929 81.3971L174.059 80.7435L173.841 80.7001L173.928 80.2644L173.71 80.2209L173.797 79.7851L173.579 79.7417L173.709 79.0881L173.491 79.0446L173.578 78.6089L173.36 78.5654L173.447 78.1297L173.229 78.0862L173.36 77.4325L173.142 77.3892L173.229 76.9534L173.011 76.9099L173.141 76.2563L172.923 76.2129L173.01 75.7772L172.792 75.7337L172.879 75.2979L172.661 75.2545L172.792 74.6009L172.574 74.5574L172.661 74.1216L172.443 74.0782L172.53 73.6424L172.312 73.599L172.442 72.9453L172.224 72.9019L172.311 72.4662L172.093 72.4227L172.18 71.987L171.962 71.9435L172.093 71.2899L171.875 71.2465L171.962 70.8107L171.744 70.7673L171.831 70.3315L171.613 70.2881L171.743 69.6345L171.525 69.591L171.612 69.1552L171.394 69.1118L171.481 68.676L171.263 68.6326L171.394 67.979L171.176 67.9355L171.263 67.4998L171.045 67.4564L171.088 67.2385L170.87 67.1951L170.957 66.7592L170.739 66.7158L170.826 66.2801L170.608 66.2366L170.652 66.0188L170.434 65.9753L170.477 65.7574L170.259 65.714L170.346 65.2783L170.128 65.2348L170.172 65.017L169.954 64.9735L169.997 64.7556L169.779 64.7122L169.823 64.4943L169.387 64.4074L169.431 64.1895L169.213 64.1461L169.256 63.9283L169.038 63.8848L168.951 64.3206L168.734 64.2771L168.69 64.495L168.472 64.4515L168.385 64.8873L168.167 64.8439L168.124 65.0617L167.906 65.0183L167.863 65.2361L167.645 65.1927L167.601 65.4106L167.384 65.3672L167.34 65.585L167.122 65.5416L167.079 65.7594L166.861 65.716L166.817 65.9339L166.382 65.847L166.338 66.0649L165.902 65.978L165.859 66.1959L165.423 66.109L165.38 66.3269L155.575 64.372L155.619 64.1541L154.747 63.9803L154.791 63.7624L154.355 63.6755L154.398 63.4576L153.963 63.3708L154.006 63.1529L153.788 63.1094L153.832 62.8916L153.396 62.8047L153.439 62.5868L153.222 62.5434L153.265 62.3255L153.047 62.2821L153.134 61.8463L152.916 61.8029L152.96 61.585L152.742 61.5416L152.829 61.1058L152.611 61.0623L152.654 60.8445L150.475 60.41L150.389 60.8458L150.171 60.8024L149.953 61.8918L150.171 61.9352L149.824 63.6782L150.042 63.7216L149.998 63.9396L149.78 63.8961L149.737 64.114L149.083 63.9836L149.257 63.1121L149.039 63.0687L149.169 62.4151L148.952 62.3716L149.125 61.5001L148.907 61.4567L149.081 60.5852L148.863 60.5417L148.95 60.1059L148.514 60.0191L148.558 59.8013L148.34 59.7578L148.383 59.5399L148.166 59.4965L149.165 54.4853L148.293 54.3115L148.033 55.6188L147.815 55.5753L147.771 55.7932L146.028 55.4456L145.985 55.6636L145.767 55.6201L145.506 56.9274L145.288 56.884L145.071 57.9733L144.853 57.9299L144.636 59.0193L144.418 58.9759L144.245 59.8474L144.027 59.8039L143.853 60.6754L143.635 60.6319L143.461 61.5034L143.243 61.46L143.069 62.3315L142.852 62.2881L142.721 62.9417L142.503 62.8982L142.33 63.7698L142.112 63.7263L141.982 64.3799L141.764 64.3365L141.633 64.9901L141.415 64.9467L141.285 65.6003L141.067 65.5569L140.937 66.2105L140.719 66.1671L140.589 66.8207L140.371 66.7773L140.284 67.213L140.066 67.1696L139.936 67.8232L139.718 67.7798L139.631 68.2155L139.413 68.1721L139.283 68.8257L139.065 68.7822L138.978 69.218L138.76 69.1746L138.63 69.8282L138.412 69.7847L138.325 70.2205L138.107 70.177L138.02 70.6128L137.802 70.5694L137.716 71.0051L137.498 70.9617L137.367 71.6153L137.149 71.5719L137.063 72.0076L136.845 71.9642L136.758 72.3999L136.54 72.3564L136.453 72.7923L136.235 72.7488L136.148 73.1846L135.93 73.1411L135.843 73.5769L135.626 73.5334L135.539 73.9692L135.321 73.9257L135.234 74.3615L135.016 74.318L134.973 74.536L134.755 74.4925L134.668 74.9282L134.45 74.8848L134.363 75.3205L134.145 75.2771L134.058 75.7128L133.841 75.6694L133.797 75.8873L133.579 75.8438L133.492 76.2796L133.274 76.2362L133.188 76.6719L132.97 76.6285L132.883 77.0642L132.665 77.0208L132.621 77.2386L132.404 77.1952L132.317 77.631L132.099 77.5875L132.055 77.8054L131.837 77.762L131.751 78.1977L131.533 78.1542L131.489 78.3722L131.271 78.3287L131.185 78.7645L130.967 78.7211L130.923 78.9389L130.705 78.8954L130.618 79.3312L130.401 79.2878L130.357 79.5056L130.139 79.4622L130.052 79.8979L129.835 79.8545L129.791 80.0724L129.573 80.0289L129.486 80.4647L129.268 80.4213L129.225 80.6391L129.007 80.5956L128.964 80.8136L128.746 80.7701L128.659 81.2059L128.441 81.1625L128.398 81.3803L128.18 81.3369L128.136 81.5547L127.918 81.5113L127.832 81.947L127.614 81.9036L127.57 82.1215L127.352 82.078L127.309 82.2959L127.091 82.2525L127.004 82.6882L126.786 82.6448L126.743 82.8627L126.525 82.8192L126.482 83.0371L126.264 82.9937L126.22 83.2115L126.002 83.1681L125.959 83.386L125.741 83.3425L125.654 83.7783L125.436 83.7349L125.393 83.9527L125.175 83.9092L125.131 84.1272L124.914 84.0837L124.87 84.3016L124.652 84.2581L124.609 84.476L124.391 84.4326L124.347 84.6505L124.13 84.6071L124.043 85.0427L123.825 84.9993L123.781 85.2172L123.564 85.1738L123.52 85.3916L123.302 85.3482L123.259 85.5661L123.041 85.5226L122.997 85.7405L122.78 85.6971L122.736 85.9149L122.518 85.8715L122.475 86.0894L122.257 86.046L122.213 86.2638L121.996 86.2204L121.952 86.4382L121.734 86.3948L121.691 86.6127L121.473 86.5692L121.43 86.7871L121.212 86.7437L121.168 86.9615L120.95 86.9181L120.907 87.136L120.689 87.0926L120.646 87.3104L120.428 87.267L120.384 87.4848L120.166 87.4414L120.123 87.6593L119.905 87.6159L119.862 87.8337L119.644 87.7903L119.6 88.0081L119.382 87.9647L119.339 88.1826L119.121 88.1392L119.078 88.357L118.86 88.3136L118.816 88.5315L118.598 88.488L118.555 88.7059L118.337 88.6625L118.294 88.8803L118.076 88.8369L118.032 89.0547L117.815 89.0113L117.771 89.2292L117.553 89.1858L117.51 89.4036L117.074 89.3168L117.031 89.5346L116.813 89.4911L116.769 89.7091L116.551 89.6656L116.508 89.8835L116.29 89.84L116.247 90.058L116.029 90.0145L115.985 90.2324L115.767 90.189L115.724 90.4068L115.288 90.3199L115.245 90.5378L115.027 90.4943L114.983 90.7122L114.766 90.6688L114.722 90.8867L114.504 90.8432L114.461 91.061L114.025 90.9742L113.982 91.192L113.764 91.1486L113.72 91.3665L113.502 91.3231L113.459 91.5409L113.241 91.4975L113.198 91.7154L112.762 91.6285L112.718 91.8464L112.501 91.8029L112.457 92.0208L112.239 91.9774L112.196 92.1952L111.76 92.1083L111.717 92.3263L111.499 92.2828L111.455 92.5007L111.237 92.4572L111.194 92.6751L110.758 92.5882L110.715 92.8061L110.497 92.7626L110.453 92.9805L110.018 92.8936L109.974 93.1115L109.756 93.0681L109.713 93.2859L109.495 93.2425L109.452 93.4604L109.016 93.3735L108.973 93.5914L108.755 93.548L108.711 93.7658L108.275 93.6789L108.232 93.8968L108.014 93.8533L107.971 94.0713L107.535 93.9843L107.491 94.2022L107.274 94.1587L107.23 94.3767L106.794 94.2898L106.751 94.5077L106.315 94.4208L106.272 94.6387L106.054 94.5952L106.01 94.8131L105.575 94.7262L105.531 94.9441L105.313 94.9006L105.27 95.1186L105.052 95.0751L105.095 94.8572L104.878 94.8138L104.965 94.378L104.747 94.3345L104.79 94.1167L104.572 94.0733L104.659 93.6375L104.441 93.5941L104.485 93.3761L104.267 93.3327L104.354 92.897L104.136 92.8536L104.179 92.6357L103.961 92.5922L104.048 92.1564L103.83 92.113L103.917 91.6773L103.699 91.6338L103.743 91.4159L103.525 91.3725L103.612 90.9367L103.394 90.8933L103.437 90.6755L103.219 90.632L103.306 90.1962L103.088 90.1528L103.132 89.9349L102.914 89.8914L103.001 89.4557L102.783 89.4123L102.87 88.9765L102.652 88.9331L102.696 88.7152L102.478 88.6717L102.565 88.236L102.347 88.1926L102.39 87.9747L102.172 87.9313L102.259 87.4955L102.041 87.4521L102.128 87.0163L101.91 86.9729L101.954 86.755L101.736 86.7115L101.823 86.2758L101.605 86.2324L101.648 86.0145L101.43 85.971L101.517 85.5353L101.299 85.4918L101.343 85.274L101.125 85.2305L101.212 84.7948L100.994 84.7513L101.081 84.3156L100.863 84.2721L100.906 84.0543L100.688 84.0108L100.775 83.575L100.557 83.5316L100.601 83.3137L100.383 83.2703L100.47 82.8345L100.252 82.7911L100.296 82.5732L100.078 82.5298L100.165 82.094L99.9467 82.0506L100.034 81.6148L99.8157 81.5714L99.8591 81.3535L99.6412 81.3101L99.7281 80.8744L99.5102 80.8309L99.5536 80.613L99.3358 80.5696L99.4227 80.1338L99.2048 80.0903L99.2483 79.8725L99.0304 79.829L99.1172 79.3933L98.8994 79.3499L98.9862 78.914L98.7684 78.8706L98.8553 78.4349L99.291 78.5218L99.3345 78.3039L99.5524 78.3473L99.5958 78.1295L100.032 78.2163L100.075 77.9985L100.293 78.0419L100.336 77.8241L100.554 77.8675L100.598 77.6496L101.033 77.7365L101.077 77.5186L101.295 77.562L101.338 77.3441L101.556 77.3876L101.599 77.1697L102.035 77.2566L102.079 77.0388L102.297 77.0822L102.34 76.8644L102.558 76.9078L102.601 76.6899L103.037 76.7768L103.081 76.5589L103.298 76.6023L103.342 76.3845L103.56 76.4279L103.603 76.2101L103.821 76.2534L103.864 76.0356L104.3 76.1225L104.344 75.9046L104.562 75.948L104.605 75.7301L104.823 75.7736L104.866 75.5557L105.084 75.5992L105.128 75.3813L105.563 75.4682L105.607 75.2503L105.825 75.2937L105.868 75.0758L106.086 75.1193L106.129 74.9015L106.347 74.9449L106.391 74.727L106.609 74.7705L106.652 74.5526L106.87 74.596L106.913 74.3781L107.131 74.4216L107.175 74.2037L107.61 74.2906L107.654 74.0728L107.872 74.1161L107.915 73.8983L108.133 73.9417L108.176 73.7238L108.394 73.7673L108.438 73.5494L108.656 73.5928L108.699 73.375L108.917 73.4184L108.961 73.2005L109.178 73.244L109.222 73.0261L109.44 73.0695L109.483 72.8516L109.701 72.8951L109.744 72.6772L109.962 72.7206L110.006 72.5028L110.224 72.5462L110.267 72.3284L110.485 72.3718L110.528 72.1539L110.746 72.1974L110.79 71.9795L111.008 72.0229L111.051 71.8051L111.269 71.8485L111.312 71.6307L111.53 71.674L111.574 71.4562L111.792 71.4997L111.835 71.2817L112.053 71.3252L112.096 71.1073L112.314 71.1507L112.401 70.715L112.619 70.7585L112.662 70.5406L112.88 70.584L112.924 70.3661L113.142 70.4096L113.185 70.1917L113.403 70.2352L113.446 70.0173L113.664 70.0608L113.708 69.8428L113.926 69.8863L114.012 69.4505L114.23 69.4939L114.274 69.2761L114.492 69.3195L114.535 69.1017L114.753 69.1451L114.796 68.9272L115.014 68.9707L115.101 68.5349L115.319 68.5784L115.362 68.3605L115.58 68.4039L115.624 68.1861L115.842 68.2295L115.885 68.0116L116.103 68.055L116.19 67.6193L116.408 67.6628L116.451 67.4449L116.669 67.4883L116.713 67.2704L116.93 67.3139L117.017 66.8781L117.235 66.9216L117.279 66.7037L117.496 66.7472L117.583 66.3114L117.801 66.3548L117.845 66.1369L118.063 66.1803L118.149 65.7447L118.367 65.7881L118.411 65.5702L118.629 65.6136L118.716 65.1779L118.933 65.2213L118.977 65.0035L119.195 65.0469L119.282 64.6111L119.499 64.6546L119.586 64.2188L119.804 64.2623L119.848 64.0444L120.066 64.0878L120.152 63.6521L120.37 63.6955L120.457 63.2598L120.675 63.3033L120.718 63.0853L120.936 63.1288L121.023 62.693L121.241 62.7364L121.328 62.3007L121.546 62.3442L121.633 61.9084L121.851 61.9518L121.938 61.5161L122.155 61.5596L122.242 61.1238L122.46 61.1672L122.547 60.7315L122.765 60.7749L122.852 60.3392L123.07 60.3826L123.157 59.9469L123.374 59.9903L123.461 59.5545L123.679 59.598L123.81 58.9444L124.027 58.9878L124.114 58.552L124.332 58.5955L124.419 58.1598L124.637 58.2032L124.767 57.5495L124.985 57.593L125.115 56.9393L125.333 56.9828L125.42 56.547L125.638 56.5904L125.768 55.9369L125.986 55.9803L126.117 55.3267L126.334 55.3701L126.465 54.7164L126.683 54.7599L126.856 53.8884L127.074 53.9318L127.205 53.2782L127.423 53.3217L127.596 52.4502L127.814 52.4936L127.988 51.6221L128.206 51.6656L128.38 50.7941L128.598 50.8375L128.771 49.9659L128.989 50.0094L129.206 48.9201L129.424 48.9635L129.685 47.6562L129.903 47.6997L130.12 46.6103L125.545 45.698L125.588 45.4801L120.141 44.394L120.185 44.1762L116.045 43.3508L115.958 43.7865L115.74 43.7431L115.697 43.961L113.082 43.4397L112.952 44.0933L112.734 44.0499L112.691 44.2677L112.473 44.2243L112.429 44.4422L109.597 43.8774L109.64 43.6595L108.551 43.4423L108.594 43.2245L107.723 43.0507L107.766 42.8328L106.895 42.659L106.938 42.4412L106.285 42.3109L106.328 42.093L105.456 41.9192L105.5 41.7013L104.846 41.571L104.89 41.3531L104.018 41.1793L104.062 40.9614L103.19 40.7876L103.234 40.5698L101.055 40.1354L101.098 39.9175L93.2547 38.3536L93.2982 38.1357L86.3261 36.7456L86.3696 36.5277L80.0512 35.2679L80.0946 35.05L73.3404 33.7033L73.3839 33.4854L71.6409 33.1379L71.6843 32.92L71.4664 32.8766L71.5098 32.6587L69.9848 32.3546L70.0282 32.1367L69.1567 31.9629L69.4173 30.6557L47.8475 26.3549L47.8041 26.5727L47.5863 26.5293L47.4993 26.9651L45.5385 26.5741L45.6688 25.9205L14.5124 19.7083L14.4256 20.144L12.2468 19.7096L12.5074 18.4023L12.2895 18.3589L12.2461 18.5768L11.1567 18.3595L11.4173 17.0523L9.23858 16.6179L9.36892 15.9642L8.93317 15.8773L8.80284 16.531L0.741419 14.9236L1.00207 13.6164L1.43787 13.7032L1.48128 13.4853L2.35278 13.6591L2.39626 13.4412L2.83198 13.5281L2.87541 13.3102L3.52907 13.4406L3.57251 13.2227L3.79034 13.2662L3.83378 13.0483L4.26954 13.1351L4.31303 12.9173L4.53091 12.9607L4.57434 12.7428L5.01005 12.8298L5.05349 12.6118L5.27141 12.6553L5.31482 12.4374L5.53273 12.4809L5.57618 12.2629L5.79404 12.3064L5.83749 12.0885L6.05533 12.1319L6.14224 11.6963L6.36007 11.7397L6.44701 11.3039L6.66487 11.3474L6.70832 11.1295L9.75861 11.7377L9.67173 12.1735L10.1074 12.2603L10.2378 11.6067L10.4557 11.6502L10.4991 11.4323L11.3706 11.606L11.5009 10.9524L12.3724 11.1262L14.4576 0.668042L14.6755 0.71153L14.7624 0.275776L15.1982 0.362716L15.2416 0.144802L19.1634 0.926747L19.12 1.14464L19.3378 1.18807L19.2944 1.40599L19.5123 1.44938L19.4254 1.88513L19.6433 1.92859L19.0785 4.76095L19.2964 4.8044L19.1661 5.45807L19.384 5.50155L19.2971 5.93722L19.5149 5.98066L19.428 6.41649L19.6459 6.45989L19.559 6.89564L19.7769 6.9391L19.69 7.37484L19.9079 7.41833L19.821 7.85399L20.0389 7.89742L19.952 8.33326L20.1699 8.37666L20.083 8.81241L20.3009 8.85586L20.214 9.29161L20.4319 9.3351L20.345 9.77084L20.5629 9.8143L20.476 10.25L20.6938 10.2934L20.607 10.7292L20.8248 10.7727L20.738 11.2084L20.9559 11.2519L20.8255 11.9055L21.0434 11.9489L20.9565 12.3847L21.1744 12.4281L21.0875 12.8639L21.3054 12.9073L21.2185 13.343L21.4364 13.3865L21.2192 14.4759L38.8672 17.9947L38.9975 17.3411L40.5226 17.6452L40.5661 17.4273L41.4376 17.6011L41.4811 17.3832L42.3526 17.5569L42.396 17.339L42.8317 17.4259L42.8751 17.2081L43.3109 17.295L43.3544 17.0771L43.79 17.164L43.8335 16.9461L44.0514 16.9895L44.0948 16.7717L44.5307 16.8585L44.5741 16.6407L44.792 16.6842L44.8354 16.4663L45.0532 16.5097L45.0967 16.2918L45.3146 16.3353L45.358 16.1173L45.5759 16.1608L45.6193 15.9429L45.8372 15.9864L45.8807 15.7685L46.0985 15.812L46.1419 15.594L46.3598 15.6375L46.4033 15.4196L46.6212 15.4631L46.6646 15.2452L46.8825 15.2886L46.9694 14.8529L47.1873 14.8964L47.2307 14.6784L47.4485 14.7219L47.5354 14.2861L47.7533 14.3296L47.7968 14.1117L48.0147 14.1551L48.1015 13.7194L48.3195 13.7628L48.4063 13.3271L48.6241 13.3706L48.6676 13.1526L48.8855 13.1961L48.9724 12.7603L49.1903 12.8037L49.2771 12.3681L49.495 12.4115L49.5819 11.9757L68.5371 15.7551L68.624 15.3195L72.9815 16.1883L73.1119 15.5346L73.3298 15.5781L73.3732 15.3602L74.4626 15.5774L74.506 15.3596L74.724 15.403L74.7674 15.1851L75.2031 15.272L75.2466 15.0541L81.1292 16.227L81.1726 16.0092L88.1447 17.3993L88.1882 17.1815L95.1602 18.5716L95.2037 18.3538L102.176 19.7439L102.219 19.526L103.526 19.7866L103.483 20.0046L103.919 20.0914L103.875 20.3093L105.4 20.6134L105.357 20.8312L105.575 20.8747L105.401 21.7462L106.926 22.0503L107.317 20.0894L107.535 20.1328L107.622 19.6971L107.84 19.7405L107.883 19.5227L112.241 20.3915L112.284 20.1736L112.502 20.217L112.546 19.9992L112.763 20.0427L112.807 19.8248L113.678 19.9985L113.635 20.2165L113.853 20.2599L113.809 20.4777L126.228 22.9539L126.272 22.7361L126.49 22.7795L126.533 22.5616L126.751 22.6051L126.794 22.3872L127.23 22.4741L126.97 23.7814Z" fill="#181C32" stroke="white" stroke-opacity="0.1" stroke-width="2" mask="url(#path-1-inside-1)"/>
</svg>
